<svg width="134" height="136" viewBox="0 0 134 136" fill="none" xmlns="http://www.w3.org/2000/svg">
<g filter="url(#filter0_d_938_8522)">
<path fill-rule="evenodd" clip-rule="evenodd" d="M59.4952 58V59.25H56.1836C54.5836 59.25 53.2436 60.4567 53.0752 62.0483L50.9702 82.0483C50.9245 82.4839 50.9708 82.9242 51.1061 83.3408C51.2415 83.7573 51.4629 84.1407 51.7559 84.4662C52.049 84.7917 52.4073 85.0519 52.8074 85.23C53.2075 85.4081 53.6406 85.5001 54.0786 85.5H79.9119C80.3499 85.5001 80.783 85.4081 81.1831 85.23C81.5832 85.0519 81.9415 84.7917 82.2346 84.4662C82.5276 84.1407 82.749 83.7573 82.8844 83.3408C83.0197 82.9242 83.066 82.4839 83.0202 82.0483L80.9152 62.0483C80.8345 61.2802 80.4722 60.5693 79.8982 60.0525C79.3242 59.5358 78.5792 59.2499 77.8069 59.25H74.4952V58C74.4952 56.0109 73.7051 54.1032 72.2985 52.6967C70.892 51.2902 68.9844 50.5 66.9952 50.5C65.0061 50.5 63.0985 51.2902 61.6919 52.6967C60.2854 54.1032 59.4952 56.0109 59.4952 58ZM66.9952 53C65.6692 53 64.3974 53.5268 63.4597 54.4645C62.522 55.4021 61.9952 56.6739 61.9952 58V59.25H71.9952V58C71.9952 56.6739 71.4685 55.4021 70.5308 54.4645C69.5931 53.5268 68.3213 53 66.9952 53ZM61.9952 66.75C61.9952 68.0761 62.522 69.3479 63.4597 70.2855C64.3974 71.2232 65.6692 71.75 66.9952 71.75C68.3213 71.75 69.5931 71.2232 70.5308 70.2855C71.4685 69.3479 71.9952 68.0761 71.9952 66.75V65.5C71.9952 65.1685 72.1269 64.8505 72.3614 64.6161C72.5958 64.3817 72.9137 64.25 73.2452 64.25C73.5768 64.25 73.8947 64.3817 74.1291 64.6161C74.3636 64.8505 74.4952 65.1685 74.4952 65.5V66.75C74.4952 68.7391 73.7051 70.6468 72.2985 72.0533C70.892 73.4598 68.9844 74.25 66.9952 74.25C65.0061 74.25 63.0985 73.4598 61.6919 72.0533C60.2854 70.6468 59.4952 68.7391 59.4952 66.75V65.5C59.4952 65.1685 59.6269 64.8505 59.8614 64.6161C60.0958 64.3817 60.4137 64.25 60.7452 64.25C61.0768 64.25 61.3947 64.3817 61.6291 64.6161C61.8636 64.8505 61.9952 65.1685 61.9952 65.5V66.75Z" fill="url(#paint0_linear_938_8522)"/>
</g>
<defs>
<filter id="filter0_d_938_8522" x="0.953125" y="0.5" width="132.086" height="135" filterUnits="userSpaceOnUse" color-interpolation-filters="sRGB">
<feFlood flood-opacity="0" result="BackgroundImageFix"/>
<feColorMatrix in="SourceAlpha" type="matrix" values="0 0 0 0 0 0 0 0 0 0 0 0 0 0 0 0 0 0 127 0" result="hardAlpha"/>
<feOffset/>
<feGaussianBlur stdDeviation="25"/>
<feComposite in2="hardAlpha" operator="out"/>
<feColorMatrix type="matrix" values="0 0 0 0 0.992157 0 0 0 0 0.533333 0 0 0 0 0.0235294 0 0 0 0.5 0"/>
<feBlend mode="normal" in2="BackgroundImageFix" result="effect1_dropShadow_938_8522"/>
<feBlend mode="normal" in="SourceGraphic" in2="effect1_dropShadow_938_8522" result="shape"/>
</filter>
<linearGradient id="paint0_linear_938_8522" x1="50.9531" y1="50.5" x2="85.8211" y2="82.4632" gradientUnits="userSpaceOnUse">
<stop stop-color="#E26009"/>
<stop offset="1" stop-color="#FF8831"/>
</linearGradient>
</defs>
</svg>
