<svg width="134" height="134" viewBox="0 0 134 134" fill="none" xmlns="http://www.w3.org/2000/svg">
<g id="Frame">
<g id="Vector" filter="url(#filter0_d_938_8546)">
<path fill-rule="evenodd" clip-rule="evenodd" d="M53.3183 51.8967C57.8381 51.1317 62.4143 50.7482 66.9983 50.75C71.66 50.75 76.2317 51.1433 80.68 51.8967C81.4006 52.0211 82.0539 52.3967 82.524 52.9568C82.9941 53.5169 83.2507 54.2254 83.2483 54.9567V56.6967C83.2481 58.0226 82.7211 59.2942 81.7833 60.2317L71.48 70.535C71.2479 70.7673 71.0638 71.043 70.9383 71.3464C70.8127 71.6498 70.7482 71.975 70.7483 72.3033V77.1817C70.7486 78.1104 70.4902 79.0208 70.0022 79.8109C69.5141 80.601 68.8156 81.2396 67.985 81.655L65.0567 83.1183C64.8661 83.2135 64.6544 83.2583 64.4416 83.2487C64.2288 83.239 64.022 83.1751 63.8409 83.0631C63.6597 82.9511 63.5102 82.7946 63.4065 82.6085C63.3028 82.4225 63.2483 82.213 63.2483 82V72.3033C63.2478 71.6405 62.984 71.0051 62.515 70.5367L52.215 60.23C51.2773 59.2925 50.7503 58.021 50.75 56.695V54.9567C50.75 53.4617 51.815 52.1517 53.3183 51.8967Z" fill="black"/>
<path fill-rule="evenodd" clip-rule="evenodd" d="M53.3183 51.8967C57.8381 51.1317 62.4143 50.7482 66.9983 50.75C71.66 50.75 76.2317 51.1433 80.68 51.8967C81.4006 52.0211 82.0539 52.3967 82.524 52.9568C82.9941 53.5169 83.2507 54.2254 83.2483 54.9567V56.6967C83.2481 58.0226 82.7211 59.2942 81.7833 60.2317L71.48 70.535C71.2479 70.7673 71.0638 71.043 70.9383 71.3464C70.8127 71.6498 70.7482 71.975 70.7483 72.3033V77.1817C70.7486 78.1104 70.4902 79.0208 70.0022 79.8109C69.5141 80.601 68.8156 81.2396 67.985 81.655L65.0567 83.1183C64.8661 83.2135 64.6544 83.2583 64.4416 83.2487C64.2288 83.239 64.022 83.1751 63.8409 83.0631C63.6597 82.9511 63.5102 82.7946 63.4065 82.6085C63.3028 82.4225 63.2483 82.213 63.2483 82V72.3033C63.2478 71.6405 62.984 71.0051 62.515 70.5367L52.215 60.23C51.2773 59.2925 50.7503 58.021 50.75 56.695V54.9567C50.75 53.4617 51.815 52.1517 53.3183 51.8967Z" fill="url(#paint0_linear_938_8546)"/>
</g>
</g>
<defs>
<filter id="filter0_d_938_8546" x="0.75" y="0.75" width="132.5" height="132.5" filterUnits="userSpaceOnUse" color-interpolation-filters="sRGB">
<feFlood flood-opacity="0" result="BackgroundImageFix"/>
<feColorMatrix in="SourceAlpha" type="matrix" values="0 0 0 0 0 0 0 0 0 0 0 0 0 0 0 0 0 0 127 0" result="hardAlpha"/>
<feOffset/>
<feGaussianBlur stdDeviation="25"/>
<feComposite in2="hardAlpha" operator="out"/>
<feColorMatrix type="matrix" values="0 0 0 0 0.992157 0 0 0 0 0.533333 0 0 0 0 0.0235294 0 0 0 0.5 0"/>
<feBlend mode="normal" in2="BackgroundImageFix" result="effect1_dropShadow_938_8546"/>
<feBlend mode="normal" in="SourceGraphic" in2="effect1_dropShadow_938_8546" result="shape"/>
</filter>
<linearGradient id="paint0_linear_938_8546" x1="50.75" y1="50.75" x2="83.25" y2="83.2484" gradientUnits="userSpaceOnUse">
<stop stop-color="#E26009"/>
<stop offset="1" stop-color="#FF8831"/>
</linearGradient>
</defs>
</svg>
