<svg width="130" height="134" viewBox="0 0 130 134" fill="none" xmlns="http://www.w3.org/2000/svg">
<g id="Frame">
<g id="Vector" filter="url(#filter0_d_938_8534)">
<path fill-rule="evenodd" clip-rule="evenodd" d="M66.6022 50.8071C66.5018 50.6725 66.3752 50.5595 66.2302 50.4749C66.0851 50.3903 65.9245 50.3358 65.7579 50.3146C65.5913 50.2935 65.4221 50.3061 65.2605 50.3518C65.0989 50.3975 64.9481 50.4752 64.8172 50.5805C61.6231 53.1447 59.5162 56.8215 58.9189 60.8738C57.8242 60.08 56.8646 59.1148 56.0772 58.0155C55.9703 57.866 55.8317 57.7419 55.6713 57.6521C55.5109 57.5623 55.3327 57.509 55.1493 57.4959C54.966 57.4829 54.782 57.5104 54.6105 57.5766C54.439 57.6428 54.2843 57.7459 54.1572 57.8788C51.9561 60.1814 50.5451 63.1249 50.1287 66.283C49.7123 69.4411 50.3121 72.6498 51.8412 75.4442C53.3703 78.2386 55.7493 80.4737 58.6336 81.8257C61.5178 83.1777 64.7576 83.5764 67.8836 82.964C71.0097 82.3517 73.8596 80.76 76.0205 78.4197C78.1815 76.0794 79.5413 73.1118 79.903 69.947C80.2647 66.7822 79.6095 63.5844 78.0323 60.8168C76.4551 58.0493 74.0378 55.8557 71.1305 54.5538C69.3434 53.6847 67.7905 52.4 66.6022 50.8071ZM71.2472 70.7471C71.2466 71.6512 71.0498 72.5443 70.6706 73.365C70.2913 74.1856 69.7385 74.9142 69.0503 75.5005C68.3621 76.0867 67.5549 76.5167 66.6844 76.7608C65.8139 77.0048 64.9009 77.0571 64.0082 76.9141C63.1155 76.771 62.2645 76.436 61.5139 75.9321C60.7633 75.4283 60.1309 74.7676 59.6604 73.9956C59.1899 73.2236 58.8924 72.3588 58.7886 71.4607C58.6847 70.5627 58.777 69.6528 59.0589 68.7938C60.1055 69.5688 61.3089 70.1438 62.6139 70.4605C62.9677 68.1787 64.1015 66.0902 65.8222 64.5505C67.3239 64.7504 68.7018 65.489 69.6997 66.6289C70.6976 67.7687 71.2475 69.2322 71.2472 70.7471Z" fill="black"/>
<path fill-rule="evenodd" clip-rule="evenodd" d="M66.6022 50.8071C66.5018 50.6725 66.3752 50.5595 66.2302 50.4749C66.0851 50.3903 65.9245 50.3358 65.7579 50.3146C65.5913 50.2935 65.4221 50.3061 65.2605 50.3518C65.0989 50.3975 64.9481 50.4752 64.8172 50.5805C61.6231 53.1447 59.5162 56.8215 58.9189 60.8738C57.8242 60.08 56.8646 59.1148 56.0772 58.0155C55.9703 57.866 55.8317 57.7419 55.6713 57.6521C55.5109 57.5623 55.3327 57.509 55.1493 57.4959C54.966 57.4829 54.782 57.5104 54.6105 57.5766C54.439 57.6428 54.2843 57.7459 54.1572 57.8788C51.9561 60.1814 50.5451 63.1249 50.1287 66.283C49.7123 69.4411 50.3121 72.6498 51.8412 75.4442C53.3703 78.2386 55.7493 80.4737 58.6336 81.8257C61.5178 83.1777 64.7576 83.5764 67.8836 82.964C71.0097 82.3517 73.8596 80.76 76.0205 78.4197C78.1815 76.0794 79.5413 73.1118 79.903 69.947C80.2647 66.7822 79.6095 63.5844 78.0323 60.8168C76.4551 58.0493 74.0378 55.8557 71.1305 54.5538C69.3434 53.6847 67.7905 52.4 66.6022 50.8071ZM71.2472 70.7471C71.2466 71.6512 71.0498 72.5443 70.6706 73.365C70.2913 74.1856 69.7385 74.9142 69.0503 75.5005C68.3621 76.0867 67.5549 76.5167 66.6844 76.7608C65.8139 77.0048 64.9009 77.0571 64.0082 76.9141C63.1155 76.771 62.2645 76.436 61.5139 75.9321C60.7633 75.4283 60.1309 74.7676 59.6604 73.9956C59.1899 73.2236 58.8924 72.3588 58.7886 71.4607C58.6847 70.5627 58.777 69.6528 59.0589 68.7938C60.1055 69.5688 61.3089 70.1438 62.6139 70.4605C62.9677 68.1787 64.1015 66.0902 65.8222 64.5505C67.3239 64.7504 68.7018 65.489 69.6997 66.6289C70.6976 67.7687 71.2475 69.2322 71.2472 70.7471Z" fill="url(#paint0_linear_938_8534)"/>
</g>
</g>
<defs>
<filter id="filter0_d_938_8534" x="0" y="0.304688" width="130" height="132.938" filterUnits="userSpaceOnUse" color-interpolation-filters="sRGB">
<feFlood flood-opacity="0" result="BackgroundImageFix"/>
<feColorMatrix in="SourceAlpha" type="matrix" values="0 0 0 0 0 0 0 0 0 0 0 0 0 0 0 0 0 0 127 0" result="hardAlpha"/>
<feOffset/>
<feGaussianBlur stdDeviation="25"/>
<feComposite in2="hardAlpha" operator="out"/>
<feColorMatrix type="matrix" values="0 0 0 0 0.992157 0 0 0 0 0.533333 0 0 0 0 0.0235294 0 0 0 0.5 0"/>
<feBlend mode="normal" in2="BackgroundImageFix" result="effect1_dropShadow_938_8534"/>
<feBlend mode="normal" in="SourceGraphic" in2="effect1_dropShadow_938_8534" result="shape"/>
</filter>
<linearGradient id="paint0_linear_938_8534" x1="50" y1="50.3047" x2="82.7958" y2="80.1742" gradientUnits="userSpaceOnUse">
<stop stop-color="#E26009"/>
<stop offset="1" stop-color="#FF8831"/>
</linearGradient>
</defs>
</svg>
