<svg width="223" height="225" viewBox="0 0 223 225" fill="none" xmlns="http://www.w3.org/2000/svg">
<g filter="url(#filter0_f_938_11046)">
<path d="M143.294 124.257C144.091 121.943 144.65 119.646 145.001 117.376L114.344 106.82L109.991 119.462L127.509 125.494C125.34 129.295 121.847 131.942 117.587 133.065L114.757 141.285L125.321 144.922C133.438 141.344 139.871 134.198 143.294 124.257Z" fill="#4285F4"/>
<path d="M101.067 145.401C109.856 148.427 118.226 148.056 125.328 144.925L117.594 133.068C114.02 134.028 109.912 133.941 105.532 132.433C97.0689 129.519 91.8501 121.316 91.9322 112.714L81.1016 108.984L78.1997 117.412C79.8876 129.91 88.3424 141.02 101.067 145.401Z" fill="#34A853"/>
<path d="M91.9386 112.678C91.9619 110.495 92.2925 108.285 93.0384 106.119C93.7843 103.953 94.8843 102.008 96.2097 100.273L99.1116 91.8457L88.2809 88.1164C84.5493 91.7441 81.5704 96.2617 79.7516 101.544C77.9328 106.826 77.4989 112.22 78.206 117.376L88.9081 113.692L91.9386 112.678Z" fill="#FBBC05"/>
<path d="M119.068 93.113C123.862 94.7637 127.551 97.8928 129.851 102.269L142.391 96.1315C138.558 88.9031 132.333 83.1416 123.544 80.1153C110.819 75.7339 97.3167 79.2834 88.2821 88.1222L96.2108 100.279C101.442 93.4502 110.605 90.1989 119.068 93.113Z" fill="#EA4335"/>
</g>
<g filter="url(#filter1_d_938_11046)">
<path d="M146.656 126.557C147.579 123.875 148.227 121.213 148.634 118.584L113.109 106.352L108.065 121L128.365 127.99C125.852 132.394 121.803 135.462 116.868 136.762L113.588 146.288L125.83 150.503C135.235 146.356 142.689 138.076 146.656 126.557Z" fill="#4285F4"/>
<path d="M97.7132 151.058C107.897 154.564 117.596 154.135 125.826 150.507L116.864 136.766C112.722 137.879 107.962 137.778 102.887 136.031C93.0804 132.654 87.0331 123.148 87.1283 113.181L74.5781 108.859L71.2155 118.625C73.1714 133.107 82.9685 145.981 97.7132 151.058Z" fill="#34A853"/>
<path d="M87.144 113.143C87.171 110.614 87.5541 108.053 88.4184 105.543C89.2827 103.033 90.5573 100.779 92.0932 98.7694L95.4558 89.0037L82.9056 84.6823C78.5815 88.886 75.1297 94.1208 73.0222 100.242C70.9146 106.362 70.4118 112.613 71.2312 118.587L83.6324 114.319L87.144 113.143Z" fill="#FBBC05"/>
<path d="M118.573 90.4682C124.128 92.381 128.403 96.0068 131.067 101.078L145.598 93.9659C141.156 85.5899 133.943 78.9137 123.759 75.407C109.014 70.33 93.3679 74.443 82.8989 84.6851L92.0865 98.7722C98.1482 90.8589 108.766 87.0914 118.573 90.4682Z" fill="#EA4335"/>
</g>
<defs>
<filter id="filter0_f_938_11046" x="-30.0641" y="-29.8688" width="286.433" height="286.433" filterUnits="userSpaceOnUse" color-interpolation-filters="sRGB">
<feFlood flood-opacity="0" result="BackgroundImageFix"/>
<feBlend mode="normal" in="SourceGraphic" in2="BackgroundImageFix" result="shape"/>
<feGaussianBlur stdDeviation="38.7" result="effect1_foregroundBlur_938_11046"/>
</filter>
<filter id="filter1_d_938_11046" x="30.7344" y="37.7344" width="160.531" height="160.531" filterUnits="userSpaceOnUse" color-interpolation-filters="sRGB">
<feFlood flood-opacity="0" result="BackgroundImageFix"/>
<feColorMatrix in="SourceAlpha" type="matrix" values="0 0 0 0 0 0 0 0 0 0 0 0 0 0 0 0 0 0 127 0" result="hardAlpha"/>
<feOffset dy="4"/>
<feGaussianBlur stdDeviation="2"/>
<feComposite in2="hardAlpha" operator="out"/>
<feColorMatrix type="matrix" values="0 0 0 0 0 0 0 0 0 0 0 0 0 0 0 0 0 0 0.25 0"/>
<feBlend mode="normal" in2="BackgroundImageFix" result="effect1_dropShadow_938_11046"/>
<feBlend mode="normal" in="SourceGraphic" in2="effect1_dropShadow_938_11046" result="shape"/>
</filter>
</defs>
</svg>
