<svg width="834" height="429" viewBox="0 0 834 429" fill="none" xmlns="http://www.w3.org/2000/svg">
<rect x="5.09541" y="34.1267" width="40.6801" height="393.07" stroke="#3D3D3D" stroke-width="0.784572"/>
<rect x="46.5563" y="34.1267" width="40.6801" height="393.07" stroke="#3D3D3D" stroke-width="0.784572"/>
<rect x="88.0251" y="34.1267" width="40.6801" height="393.07" stroke="#3D3D3D" stroke-width="0.784572"/>
<rect x="129.486" y="34.1267" width="40.6801" height="393.07" stroke="#3D3D3D" stroke-width="0.784572"/>
<rect x="170.955" y="34.1267" width="40.6801" height="393.07" stroke="#3D3D3D" stroke-width="0.784572"/>
<rect x="212.416" y="34.1267" width="40.6801" height="393.07" stroke="#3D3D3D" stroke-width="0.784572"/>
<rect x="253.884" y="34.1267" width="40.6801" height="393.07" stroke="#3D3D3D" stroke-width="0.784572"/>
<rect x="295.345" y="34.1267" width="40.6801" height="393.07" stroke="#3D3D3D" stroke-width="0.784572"/>
<rect x="336.814" y="34.1267" width="40.6801" height="393.07" stroke="#3D3D3D" stroke-width="0.784572"/>
<rect x="378.275" y="34.1267" width="40.6801" height="393.07" stroke="#3D3D3D" stroke-width="0.784572"/>
<rect x="419.744" y="34.1267" width="40.6801" height="393.07" stroke="#3D3D3D" stroke-width="0.784572"/>
<rect x="461.205" y="34.1267" width="40.6801" height="393.07" stroke="#3D3D3D" stroke-width="0.784572"/>
<rect x="502.674" y="34.1267" width="40.6801" height="393.07" stroke="#3D3D3D" stroke-width="0.784572"/>
<rect x="544.134" y="34.1267" width="40.6801" height="393.07" stroke="#3D3D3D" stroke-width="0.784572"/>
<rect x="585.603" y="34.1267" width="40.6801" height="393.07" stroke="#3D3D3D" stroke-width="0.784572"/>
<rect x="627.064" y="34.1267" width="40.6801" height="393.07" stroke="#3D3D3D" stroke-width="0.784572"/>
<rect x="668.533" y="34.1267" width="40.6801" height="393.07" stroke="#3D3D3D" stroke-width="0.784572"/>
<rect x="709.994" y="34.1267" width="40.6801" height="393.07" stroke="#3D3D3D" stroke-width="0.784572"/>
<rect x="751.455" y="34.1267" width="40.6801" height="393.07" stroke="#3D3D3D" stroke-width="0.784572"/>
<rect x="792.924" y="34.1267" width="40.6801" height="393.07" stroke="#3D3D3D" stroke-width="0.784572"/>
<path d="M833.601 377.375H5.09375" stroke="#1E1E24" stroke-width="0.784572"/>
<g clip-path="url(#clip0_938_10697)">
<ellipse opacity="0.7" cx="738.28" cy="211.834" rx="405.623" ry="211.834" fill="url(#paint0_radial_938_10697)" fill-opacity="0.3"/>
<g filter="url(#filter0_ddddddd_938_10697)">
<path d="M6.27344 148.673C44.4647 148.673 39.8355 107.431 85.5493 107.431C131.263 107.431 124.319 198.164 157.303 198.164C190.286 198.164 196.073 148.673 235.421 148.673C274.77 148.673 279.978 73.75 310.646 73.75C341.315 73.75 357.905 148.673 388.186 148.673C414.852 148.673 429.802 111.555 456.468 111.555C485.619 111.555 501.963 148.673 531.114 148.673C560.266 148.673 576.61 203.663 605.761 203.663C635.138 203.663 651.609 229.095 680.986 229.095C709.912 229.095 726.129 148.673 755.054 148.673C784.657 148.673 801.255 103.307 830.858 103.307" stroke="#FD8806" stroke-width="2.35371" stroke-linecap="round"/>
</g>
<path d="M6.27344 186.191C44.4647 186.191 39.8355 213.513 85.5493 213.513C131.263 213.513 124.319 235.37 157.303 235.37C190.286 235.37 193.179 180.727 232.528 180.727C271.876 180.727 279.978 170.482 310.646 170.482C341.315 170.482 357.905 213.513 388.186 213.513C414.852 213.513 429.802 149.307 456.468 149.307C485.619 149.307 501.963 117.888 531.114 117.888C560.266 117.888 576.61 69.3918 605.761 69.3918C635.138 69.3918 651.609 161.602 680.986 161.602C709.912 161.602 726.707 117.888 755.633 117.888C785.236 117.888 801.255 61.1953 830.858 61.1953" stroke="#C5200C" stroke-width="2.35371" stroke-linecap="round"/>
<g filter="url(#filter1_ddddd_938_10697)">
<path d="M6.27344 235.429C44.4457 235.429 39.8187 252.398 85.5097 252.398C131.201 252.398 124.26 265.973 157.227 265.973C190.194 265.973 193.086 232.036 232.415 232.036C271.744 232.036 279.841 225.672 310.495 225.672C341.148 225.672 357.73 252.398 387.996 252.398C414.648 252.398 429.591 212.522 456.243 212.522C485.38 212.522 501.716 193.008 530.852 193.008C559.989 193.008 575.009 252.398 604.146 252.398C633.509 252.398 651.287 220.158 680.649 220.158C709.56 220.158 726.348 193.008 755.259 193.008C784.847 193.008 799.7 235.429 829.289 235.429" stroke="#FF8743" stroke-width="2.35371" stroke-linecap="round"/>
</g>
<g filter="url(#filter2_dddddd_938_10697)">
<path d="M6.27344 290.787C44.4457 290.787 39.8187 294.436 85.5097 294.436C131.201 294.436 124.26 297.355 157.227 297.355C190.194 297.355 193.086 290.057 232.415 290.057C271.744 290.057 279.841 288.689 310.495 288.689C341.148 288.689 357.73 294.436 387.996 294.436C414.648 294.436 429.591 285.861 456.243 285.861C485.38 285.861 501.716 281.664 530.852 281.664C559.989 281.664 575.009 294.436 604.146 294.436C633.509 294.436 651.287 287.503 680.649 287.503C709.56 287.503 726.348 281.664 755.259 281.664C784.847 281.664 799.7 290.787 829.289 290.787" stroke="#DB3031" stroke-width="2.35371" stroke-linecap="round"/>
</g>
</g>
<defs>
<filter id="filter0_ddddddd_938_10697" x="-91.4085" y="72.5703" width="1019.94" height="437.795" filterUnits="userSpaceOnUse" color-interpolation-filters="sRGB">
<feFlood flood-opacity="0" result="BackgroundImageFix"/>
<feColorMatrix in="SourceAlpha" type="matrix" values="0 0 0 0 0 0 0 0 0 0 0 0 0 0 0 0 0 0 127 0" result="hardAlpha"/>
<feOffset dy="4.25418"/>
<feGaussianBlur stdDeviation="1.11809"/>
<feColorMatrix type="matrix" values="0 0 0 0 0.992157 0 0 0 0 0.533333 0 0 0 0 0.0235294 0 0 0 0.258325 0"/>
<feBlend mode="normal" in2="BackgroundImageFix" result="effect1_dropShadow_938_10697"/>
<feColorMatrix in="SourceAlpha" type="matrix" values="0 0 0 0 0 0 0 0 0 0 0 0 0 0 0 0 0 0 127 0" result="hardAlpha"/>
<feOffset dy="9.8913"/>
<feGaussianBlur stdDeviation="2.59964"/>
<feColorMatrix type="matrix" values="0 0 0 0 0.992157 0 0 0 0 0.533333 0 0 0 0 0.0235294 0 0 0 0.373219 0"/>
<feBlend mode="normal" in2="effect1_dropShadow_938_10697" result="effect2_dropShadow_938_10697"/>
<feColorMatrix in="SourceAlpha" type="matrix" values="0 0 0 0 0 0 0 0 0 0 0 0 0 0 0 0 0 0 127 0" result="hardAlpha"/>
<feOffset dy="17.7625"/>
<feGaussianBlur stdDeviation="4.66834"/>
<feColorMatrix type="matrix" values="0 0 0 0 0.992157 0 0 0 0 0.533333 0 0 0 0 0.0235294 0 0 0 0.460052 0"/>
<feBlend mode="normal" in2="effect2_dropShadow_938_10697" result="effect3_dropShadow_938_10697"/>
<feColorMatrix in="SourceAlpha" type="matrix" values="0 0 0 0 0 0 0 0 0 0 0 0 0 0 0 0 0 0 127 0" result="hardAlpha"/>
<feOffset dy="29.4791"/>
<feGaussianBlur stdDeviation="7.74772"/>
<feColorMatrix type="matrix" values="0 0 0 0 0.992157 0 0 0 0 0.533333 0 0 0 0 0.0235294 0 0 0 0.539948 0"/>
<feBlend mode="normal" in2="effect3_dropShadow_938_10697" result="effect4_dropShadow_938_10697"/>
<feColorMatrix in="SourceAlpha" type="matrix" values="0 0 0 0 0 0 0 0 0 0 0 0 0 0 0 0 0 0 127 0" result="hardAlpha"/>
<feOffset dy="48.5659"/>
<feGaussianBlur stdDeviation="12.7641"/>
<feColorMatrix type="matrix" values="0 0 0 0 0.992157 0 0 0 0 0.533333 0 0 0 0 0.0235294 0 0 0 0.626781 0"/>
<feBlend mode="normal" in2="effect4_dropShadow_938_10697" result="effect5_dropShadow_938_10697"/>
<feColorMatrix in="SourceAlpha" type="matrix" values="0 0 0 0 0 0 0 0 0 0 0 0 0 0 0 0 0 0 127 0" result="hardAlpha"/>
<feOffset dy="84.8791"/>
<feGaussianBlur stdDeviation="22.308"/>
<feColorMatrix type="matrix" values="0 0 0 0 0.992157 0 0 0 0 0.533333 0 0 0 0 0.0235294 0 0 0 0.741675 0"/>
<feBlend mode="normal" in2="effect5_dropShadow_938_10697" result="effect6_dropShadow_938_10697"/>
<feColorMatrix in="SourceAlpha" type="matrix" values="0 0 0 0 0 0 0 0 0 0 0 0 0 0 0 0 0 0 127 0" result="hardAlpha"/>
<feOffset dy="183.59"/>
<feGaussianBlur stdDeviation="48.2511"/>
<feColorMatrix type="matrix" values="0 0 0 0 0.992157 0 0 0 0 0.533333 0 0 0 0 0.0235294 0 0 0 1 0"/>
<feBlend mode="normal" in2="effect6_dropShadow_938_10697" result="effect7_dropShadow_938_10697"/>
<feBlend mode="normal" in="SourceGraphic" in2="effect7_dropShadow_938_10697" result="shape"/>
</filter>
<filter id="filter1_ddddd_938_10697" x="-52.9645" y="191.044" width="941.492" height="191.437" filterUnits="userSpaceOnUse" color-interpolation-filters="sRGB">
<feFlood flood-opacity="0" result="BackgroundImageFix"/>
<feColorMatrix in="SourceAlpha" type="matrix" values="0 0 0 0 0 0 0 0 0 0 0 0 0 0 0 0 0 0 127 0" result="hardAlpha"/>
<feOffset dy="1.96729"/>
<feGaussianBlur stdDeviation="0.99712"/>
<feColorMatrix type="matrix" values="0 0 0 0 1 0 0 0 0 0.635294 0 0 0 0 0 0 0 0 0.195312 0"/>
<feBlend mode="normal" in2="BackgroundImageFix" result="effect1_dropShadow_938_10697"/>
<feColorMatrix in="SourceAlpha" type="matrix" values="0 0 0 0 0 0 0 0 0 0 0 0 0 0 0 0 0 0 127 0" result="hardAlpha"/>
<feOffset dy="4.97543"/>
<feGaussianBlur stdDeviation="2.52179"/>
<feColorMatrix type="matrix" values="0 0 0 0 1 0 0 0 0 0.635294 0 0 0 0 0 0 0 0 0.279537 0"/>
<feBlend mode="normal" in2="effect1_dropShadow_938_10697" result="effect2_dropShadow_938_10697"/>
<feColorMatrix in="SourceAlpha" type="matrix" values="0 0 0 0 0 0 0 0 0 0 0 0 0 0 0 0 0 0 127 0" result="hardAlpha"/>
<feOffset dy="10.1494"/>
<feGaussianBlur stdDeviation="5.14422"/>
<feColorMatrix type="matrix" values="0 0 0 0 1 0 0 0 0 0.635294 0 0 0 0 0 0 0 0 0.350463 0"/>
<feBlend mode="normal" in2="effect2_dropShadow_938_10697" result="effect3_dropShadow_938_10697"/>
<feColorMatrix in="SourceAlpha" type="matrix" values="0 0 0 0 0 0 0 0 0 0 0 0 0 0 0 0 0 0 127 0" result="hardAlpha"/>
<feOffset dy="20.9059"/>
<feGaussianBlur stdDeviation="10.5961"/>
<feColorMatrix type="matrix" values="0 0 0 0 1 0 0 0 0 0.635294 0 0 0 0 0 0 0 0 0.434688 0"/>
<feBlend mode="normal" in2="effect3_dropShadow_938_10697" result="effect4_dropShadow_938_10697"/>
<feColorMatrix in="SourceAlpha" type="matrix" values="0 0 0 0 0 0 0 0 0 0 0 0 0 0 0 0 0 0 127 0" result="hardAlpha"/>
<feOffset dy="57.2737"/>
<feGaussianBlur stdDeviation="29.0291"/>
<feColorMatrix type="matrix" values="0 0 0 0 1 0 0 0 0 0.635294 0 0 0 0 0 0 0 0 0.63 0"/>
<feBlend mode="normal" in2="effect4_dropShadow_938_10697" result="effect5_dropShadow_938_10697"/>
<feBlend mode="normal" in="SourceGraphic" in2="effect5_dropShadow_938_10697" result="shape"/>
</filter>
<filter id="filter2_dddddd_938_10697" x="-57.672" y="280.484" width="950.906" height="159.27" filterUnits="userSpaceOnUse" color-interpolation-filters="sRGB">
<feFlood flood-opacity="0" result="BackgroundImageFix"/>
<feColorMatrix in="SourceAlpha" type="matrix" values="0 0 0 0 0 0 0 0 0 0 0 0 0 0 0 0 0 0 127 0" result="hardAlpha"/>
<feOffset dy="2.17111"/>
<feGaussianBlur stdDeviation="0.868444"/>
<feColorMatrix type="matrix" values="0 0 0 0 1 0 0 0 0 0.0745098 0 0 0 0 0.368627 0 0 0 0.0955895 0"/>
<feBlend mode="normal" in2="BackgroundImageFix" result="effect1_dropShadow_938_10697"/>
<feColorMatrix in="SourceAlpha" type="matrix" values="0 0 0 0 0 0 0 0 0 0 0 0 0 0 0 0 0 0 127 0" result="hardAlpha"/>
<feOffset dy="5.21748"/>
<feGaussianBlur stdDeviation="2.08699"/>
<feColorMatrix type="matrix" values="0 0 0 0 1 0 0 0 0 0.0745098 0 0 0 0 0.368627 0 0 0 0.137324 0"/>
<feBlend mode="normal" in2="effect1_dropShadow_938_10697" result="effect2_dropShadow_938_10697"/>
<feColorMatrix in="SourceAlpha" type="matrix" values="0 0 0 0 0 0 0 0 0 0 0 0 0 0 0 0 0 0 127 0" result="hardAlpha"/>
<feOffset dy="9.82405"/>
<feGaussianBlur stdDeviation="3.92962"/>
<feColorMatrix type="matrix" values="0 0 0 0 1 0 0 0 0 0.0745098 0 0 0 0 0.368627 0 0 0 0.17 0"/>
<feBlend mode="normal" in2="effect2_dropShadow_938_10697" result="effect3_dropShadow_938_10697"/>
<feColorMatrix in="SourceAlpha" type="matrix" values="0 0 0 0 0 0 0 0 0 0 0 0 0 0 0 0 0 0 127 0" result="hardAlpha"/>
<feOffset dy="17.5244"/>
<feGaussianBlur stdDeviation="7.00977"/>
<feColorMatrix type="matrix" values="0 0 0 0 1 0 0 0 0 0.0745098 0 0 0 0 0.368627 0 0 0 0.202676 0"/>
<feBlend mode="normal" in2="effect3_dropShadow_938_10697" result="effect4_dropShadow_938_10697"/>
<feColorMatrix in="SourceAlpha" type="matrix" values="0 0 0 0 0 0 0 0 0 0 0 0 0 0 0 0 0 0 127 0" result="hardAlpha"/>
<feOffset dy="32.7775"/>
<feGaussianBlur stdDeviation="13.111"/>
<feColorMatrix type="matrix" values="0 0 0 0 1 0 0 0 0 0.0745098 0 0 0 0 0.368627 0 0 0 0.24441 0"/>
<feBlend mode="normal" in2="effect4_dropShadow_938_10697" result="effect5_dropShadow_938_10697"/>
<feColorMatrix in="SourceAlpha" type="matrix" values="0 0 0 0 0 0 0 0 0 0 0 0 0 0 0 0 0 0 127 0" result="hardAlpha"/>
<feOffset dy="78.4572"/>
<feGaussianBlur stdDeviation="31.3829"/>
<feColorMatrix type="matrix" values="0 0 0 0 1 0 0 0 0 0.0745098 0 0 0 0 0.368627 0 0 0 0.34 0"/>
<feBlend mode="normal" in2="effect5_dropShadow_938_10697" result="effect6_dropShadow_938_10697"/>
<feBlend mode="normal" in="SourceGraphic" in2="effect6_dropShadow_938_10697" result="shape"/>
</filter>
<radialGradient id="paint0_radial_938_10697" cx="0" cy="0" r="1" gradientUnits="userSpaceOnUse" gradientTransform="translate(738.28 211.834) rotate(90) scale(211.834 405.623)">
<stop stop-color="#D71E1E"/>
<stop offset="1" stop-color="#D13F3F" stop-opacity="0"/>
</radialGradient>
<clipPath id="clip0_938_10697">
<rect width="832.43" height="428.376" fill="white"/>
</clipPath>
</defs>
</svg>
