<svg width="834" height="429" viewBox="0 0 834 429" fill="none" xmlns="http://www.w3.org/2000/svg">
<rect x="5.09541" y="34.1267" width="40.6801" height="393.07" stroke="#3D3D3D" stroke-width="0.784572"/>
<path opacity="0.6" d="M15.4435 404.734C14.9398 404.734 14.5107 404.597 14.1563 404.323C13.8019 404.047 13.5311 403.647 13.3439 403.123C13.1566 402.597 13.063 401.961 13.063 401.217C13.063 400.477 13.1566 399.845 13.3439 399.321C13.5333 398.795 13.8052 398.394 14.1596 398.118C14.5163 397.839 14.9442 397.7 15.4435 397.7C15.9428 397.7 16.3696 397.839 16.724 398.118C17.0806 398.394 17.3525 398.795 17.5398 399.321C17.7292 399.845 17.8239 400.477 17.8239 401.217C17.8239 401.961 17.7303 402.597 17.5431 403.123C17.3559 403.647 17.0851 404.047 16.7307 404.323C16.3763 404.597 15.9472 404.734 15.4435 404.734ZM15.4435 403.999C15.9428 403.999 16.3306 403.758 16.607 403.277C16.8833 402.795 17.0215 402.109 17.0215 401.217C17.0215 400.624 16.958 400.119 16.831 399.703C16.7062 399.286 16.5256 398.968 16.2893 398.75C16.0553 398.531 15.7734 398.422 15.4435 398.422C14.9487 398.422 14.562 398.666 14.2833 399.154C14.0047 399.64 13.8654 400.328 13.8654 401.217C13.8654 401.81 13.9278 402.314 14.0527 402.728C14.1775 403.143 14.3569 403.458 14.5909 403.674C14.8272 403.891 15.1114 403.999 15.4435 403.999ZM21.5016 397.793V404.641H20.6725V398.663H20.6324L18.9607 399.773V398.93L20.6725 397.793H21.5016ZM25.9048 397.472L23.6982 405.67H22.976L25.1826 397.472H25.9048ZM29.0601 404.734C28.5564 404.734 28.1273 404.597 27.7729 404.323C27.4185 404.047 27.1477 403.647 26.9605 403.123C26.7732 402.597 26.6796 401.961 26.6796 401.217C26.6796 400.477 26.7732 399.845 26.9605 399.321C27.1499 398.795 27.4218 398.394 27.7762 398.118C28.1329 397.839 28.5608 397.7 29.0601 397.7C29.5594 397.7 29.9862 397.839 30.3406 398.118C30.6972 398.394 30.9691 398.795 31.1564 399.321C31.3458 399.845 31.4405 400.477 31.4405 401.217C31.4405 401.961 31.3469 402.597 31.1597 403.123C30.9725 403.647 30.7017 404.047 30.3473 404.323C29.9929 404.597 29.5638 404.734 29.0601 404.734ZM29.0601 403.999C29.5594 403.999 29.9472 403.758 30.2236 403.277C30.5 402.795 30.6381 402.109 30.6381 401.217C30.6381 400.624 30.5746 400.119 30.4476 399.703C30.3228 399.286 30.1422 398.968 29.906 398.75C29.6719 398.531 29.39 398.422 29.0601 398.422C28.5653 398.422 28.1786 398.666 27.8999 399.154C27.6213 399.64 27.482 400.328 27.482 401.217C27.482 401.81 27.5444 402.314 27.6693 402.728C27.7941 403.143 27.9735 403.458 28.2075 403.674C28.4438 403.891 28.728 403.999 29.0601 403.999ZM32.711 404.641V404.039L34.9711 401.565C35.2364 401.275 35.4548 401.023 35.6264 400.809C35.798 400.593 35.9251 400.39 36.0076 400.201C36.0923 400.009 36.1346 399.808 36.1346 399.599C36.1346 399.358 36.0767 399.15 35.9607 398.974C35.8471 398.798 35.6911 398.662 35.4927 398.566C35.2943 398.47 35.0714 398.422 34.824 398.422C34.561 398.422 34.3314 398.477 34.1353 398.586C33.9414 398.693 33.7909 398.843 33.6839 399.037C33.5792 399.231 33.5268 399.458 33.5268 399.719H32.7378C32.7378 399.318 32.8303 398.966 33.0153 398.663C33.2003 398.36 33.4521 398.123 33.7709 397.954C34.0918 397.785 34.4518 397.7 34.8508 397.7C35.252 397.7 35.6075 397.785 35.9173 397.954C36.2271 398.123 36.4701 398.352 36.6461 398.639C36.8222 398.927 36.9103 399.247 36.9103 399.599C36.9103 399.851 36.8646 400.097 36.7732 400.338C36.684 400.576 36.528 400.843 36.3051 401.137C36.0845 401.429 35.778 401.785 35.3857 402.207L33.8478 403.852V403.905H37.0306V404.641H32.711Z" fill="#D0D0DA"/>
<rect x="46.5563" y="34.1267" width="40.6801" height="393.07" stroke="#3D3D3D" stroke-width="0.784572"/>
<path opacity="0.6" d="M56.2424 404.734C55.7387 404.734 55.3096 404.597 54.9552 404.323C54.6009 404.047 54.33 403.647 54.1428 403.123C53.9556 402.597 53.862 401.961 53.862 401.217C53.862 400.477 53.9556 399.845 54.1428 399.321C54.3323 398.795 54.6042 398.394 54.9586 398.118C55.3152 397.839 55.7432 397.7 56.2424 397.7C56.7417 397.7 57.1685 397.839 57.5229 398.118C57.8796 398.394 58.1515 398.795 58.3387 399.321C58.5282 399.845 58.6229 400.477 58.6229 401.217C58.6229 401.961 58.5293 402.597 58.3421 403.123C58.1548 403.647 57.884 404.047 57.5296 404.323C57.1752 404.597 56.7462 404.734 56.2424 404.734ZM56.2424 403.999C56.7417 403.999 57.1295 403.758 57.4059 403.277C57.6823 402.795 57.8205 402.109 57.8205 401.217C57.8205 400.624 57.757 400.119 57.6299 399.703C57.5051 399.286 57.3246 398.968 57.0883 398.75C56.8543 398.531 56.5723 398.422 56.2424 398.422C55.7476 398.422 55.3609 398.666 55.0823 399.154C54.8037 399.64 54.6644 400.328 54.6644 401.217C54.6644 401.81 54.7268 402.314 54.8516 402.728C54.9764 403.143 55.1559 403.458 55.3899 403.674C55.6261 403.891 55.9103 403.999 56.2424 403.999ZM59.8934 404.641V404.039L62.1535 401.565C62.4187 401.275 62.6371 401.023 62.8088 400.809C62.9804 400.593 63.1074 400.39 63.1899 400.201C63.2746 400.009 63.317 399.808 63.317 399.599C63.317 399.358 63.259 399.15 63.1431 398.974C63.0294 398.798 62.8734 398.662 62.675 398.566C62.4767 398.47 62.2538 398.422 62.0064 398.422C61.7434 398.422 61.5138 398.477 61.3176 398.586C61.1237 398.693 60.9733 398.843 60.8663 399.037C60.7615 399.231 60.7091 399.458 60.7091 399.719H59.9201C59.9201 399.318 60.0126 398.966 60.1976 398.663C60.3826 398.36 60.6345 398.123 60.9532 397.954C61.2742 397.785 61.6341 397.7 62.0331 397.7C62.4343 397.7 62.7898 397.785 63.0996 397.954C63.4095 398.123 63.6524 398.352 63.8285 398.639C64.0046 398.927 64.0926 399.247 64.0926 399.599C64.0926 399.851 64.0469 400.097 63.9555 400.338C63.8664 400.576 63.7104 400.843 63.4875 401.137C63.2668 401.429 62.9603 401.785 62.568 402.207L61.0301 403.852V403.905H64.213V404.641H59.8934ZM68.0277 397.472L65.8211 405.67H65.099L67.3056 397.472H68.0277ZM71.183 404.734C70.6793 404.734 70.2502 404.597 69.8958 404.323C69.5414 404.047 69.2706 403.647 69.0834 403.123C68.8962 402.597 68.8025 401.961 68.8025 401.217C68.8025 400.477 68.8962 399.845 69.0834 399.321C69.2728 398.795 69.5448 398.394 69.8992 398.118C70.2558 397.839 70.6837 397.7 71.183 397.7C71.6823 397.7 72.1091 397.839 72.4635 398.118C72.8201 398.394 73.0921 398.795 73.2793 399.321C73.4687 399.845 73.5635 400.477 73.5635 401.217C73.5635 401.961 73.4699 402.597 73.2826 403.123C73.0954 403.647 72.8246 404.047 72.4702 404.323C72.1158 404.597 71.6867 404.734 71.183 404.734ZM71.183 403.999C71.6823 403.999 72.0701 403.758 72.3465 403.277C72.6229 402.795 72.7611 402.109 72.7611 401.217C72.7611 400.624 72.6975 400.119 72.5705 399.703C72.4457 399.286 72.2651 398.968 72.0289 398.75C71.7948 398.531 71.5129 398.422 71.183 398.422C70.6882 398.422 70.3015 398.666 70.0229 399.154C69.7443 399.64 69.6049 400.328 69.6049 401.217C69.6049 401.81 69.6674 402.314 69.7922 402.728C69.917 403.143 70.0964 403.458 70.3305 403.674C70.5667 403.891 70.8509 403.999 71.183 403.999ZM74.8339 404.641V404.039L77.094 401.565C77.3593 401.275 77.5777 401.023 77.7493 400.809C77.921 400.593 78.048 400.39 78.1305 400.201C78.2152 400.009 78.2575 399.808 78.2575 399.599C78.2575 399.358 78.1996 399.15 78.0837 398.974C77.97 398.798 77.814 398.662 77.6156 398.566C77.4172 398.47 77.1943 398.422 76.9469 398.422C76.6839 398.422 76.4543 398.477 76.2582 398.586C76.0643 398.693 75.9138 398.843 75.8069 399.037C75.7021 399.231 75.6497 399.458 75.6497 399.719H74.8607C74.8607 399.318 74.9532 398.966 75.1382 398.663C75.3232 398.36 75.575 398.123 75.8938 397.954C76.2147 397.785 76.5747 397.7 76.9737 397.7C77.3749 397.7 77.7304 397.785 78.0402 397.954C78.35 398.123 78.593 398.352 78.7691 398.639C78.9451 398.927 79.0332 399.247 79.0332 399.599C79.0332 399.851 78.9875 400.097 78.8961 400.338C78.8069 400.576 78.6509 400.843 78.428 401.137C78.2074 401.429 77.9009 401.785 77.5086 402.207L75.9707 403.852V403.905H79.1535V404.641H74.8339Z" fill="#D0D0DA"/>
<rect x="88.0251" y="34.1267" width="40.6801" height="393.07" stroke="#3D3D3D" stroke-width="0.784572"/>
<path opacity="0.6" d="M97.5641 404.734C97.0603 404.734 96.6313 404.597 96.2769 404.323C95.9225 404.047 95.6517 403.647 95.4645 403.123C95.2772 402.597 95.1836 401.961 95.1836 401.217C95.1836 400.477 95.2772 399.845 95.4645 399.321C95.6539 398.795 95.9258 398.394 96.2802 398.118C96.6369 397.839 97.0648 397.7 97.5641 397.7C98.0634 397.7 98.4902 397.839 98.8446 398.118C99.2012 398.394 99.4731 398.795 99.6604 399.321C99.8498 399.845 99.9445 400.477 99.9445 401.217C99.9445 401.961 99.8509 402.597 99.6637 403.123C99.4765 403.647 99.2057 404.047 98.8513 404.323C98.4969 404.597 98.0678 404.734 97.5641 404.734ZM97.5641 403.999C98.0634 403.999 98.4512 403.758 98.7276 403.277C99.0039 402.795 99.1421 402.109 99.1421 401.217C99.1421 400.624 99.0786 400.119 98.9516 399.703C98.8267 399.286 98.6462 398.968 98.4099 398.75C98.1759 398.531 97.894 398.422 97.5641 398.422C97.0693 398.422 96.6826 398.666 96.4039 399.154C96.1253 399.64 95.986 400.328 95.986 401.217C95.986 401.81 96.0484 402.314 96.1732 402.728C96.2981 403.143 96.4775 403.458 96.7115 403.674C96.9478 403.891 97.232 403.999 97.5641 403.999ZM103.529 404.734C103.087 404.734 102.694 404.658 102.348 404.507C102.005 404.355 101.732 404.145 101.529 403.875C101.329 403.603 101.219 403.288 101.202 402.929H102.044C102.062 403.149 102.138 403.34 102.272 403.501C102.405 403.659 102.58 403.781 102.796 403.868C103.013 403.955 103.252 403.999 103.515 403.999C103.809 403.999 104.07 403.947 104.298 403.845C104.525 403.742 104.703 403.6 104.833 403.417C104.962 403.234 105.026 403.022 105.026 402.782C105.026 402.53 104.964 402.308 104.839 402.116C104.714 401.922 104.532 401.771 104.291 401.662C104.05 401.552 103.756 401.498 103.408 401.498H102.86V400.762H103.408C103.68 400.762 103.919 400.713 104.124 400.615C104.331 400.517 104.493 400.379 104.609 400.201C104.727 400.022 104.786 399.813 104.786 399.572C104.786 399.34 104.734 399.139 104.632 398.967C104.529 398.795 104.385 398.662 104.197 398.566C104.012 398.47 103.794 398.422 103.542 398.422C103.306 398.422 103.083 398.465 102.873 398.552C102.666 398.637 102.497 398.761 102.365 398.924C102.234 399.084 102.162 399.278 102.151 399.505H101.349C101.362 399.146 101.47 398.832 101.673 398.562C101.876 398.29 102.141 398.079 102.469 397.927C102.799 397.776 103.161 397.7 103.555 397.7C103.979 397.7 104.342 397.786 104.645 397.957C104.948 398.127 105.181 398.351 105.344 398.629C105.507 398.908 105.588 399.209 105.588 399.532C105.588 399.918 105.487 400.246 105.284 400.518C105.083 400.79 104.81 400.979 104.465 401.083V401.137C104.897 401.208 105.235 401.392 105.478 401.688C105.721 401.983 105.842 402.347 105.842 402.782C105.842 403.154 105.741 403.488 105.538 403.785C105.337 404.079 105.063 404.311 104.715 404.48C104.368 404.65 103.972 404.734 103.529 404.734ZM109.644 397.472L107.437 405.67H106.715L108.921 397.472H109.644ZM112.799 404.734C112.295 404.734 111.866 404.597 111.512 404.323C111.157 404.047 110.886 403.647 110.699 403.123C110.512 402.597 110.418 401.961 110.418 401.217C110.418 400.477 110.512 399.845 110.699 399.321C110.889 398.795 111.161 398.394 111.515 398.118C111.872 397.839 112.3 397.7 112.799 397.7C113.298 397.7 113.725 397.839 114.079 398.118C114.436 398.394 114.708 398.795 114.895 399.321C115.085 399.845 115.179 400.477 115.179 401.217C115.179 401.961 115.086 402.597 114.898 403.123C114.711 403.647 114.44 404.047 114.086 404.323C113.732 404.597 113.303 404.734 112.799 404.734ZM112.799 403.999C113.298 403.999 113.686 403.758 113.962 403.277C114.239 402.795 114.377 402.109 114.377 401.217C114.377 400.624 114.313 400.119 114.186 399.703C114.062 399.286 113.881 398.968 113.645 398.75C113.411 398.531 113.129 398.422 112.799 398.422C112.304 398.422 111.917 398.666 111.639 399.154C111.36 399.64 111.221 400.328 111.221 401.217C111.221 401.81 111.283 402.314 111.408 402.728C111.533 403.143 111.712 403.458 111.946 403.674C112.183 403.891 112.467 403.999 112.799 403.999ZM116.45 404.641V404.039L118.71 401.565C118.975 401.275 119.194 401.023 119.365 400.809C119.537 400.593 119.664 400.39 119.746 400.201C119.831 400.009 119.873 399.808 119.873 399.599C119.873 399.358 119.815 399.15 119.7 398.974C119.586 398.798 119.43 398.662 119.231 398.566C119.033 398.47 118.81 398.422 118.563 398.422C118.3 398.422 118.07 398.477 117.874 398.586C117.68 398.693 117.53 398.843 117.423 399.037C117.318 399.231 117.266 399.458 117.266 399.719H116.477C116.477 399.318 116.569 398.966 116.754 398.663C116.939 398.36 117.191 398.123 117.51 397.954C117.831 397.785 118.191 397.7 118.59 397.7C118.991 397.7 119.346 397.785 119.656 397.954C119.966 398.123 120.209 398.352 120.385 398.639C120.561 398.927 120.649 399.247 120.649 399.599C120.649 399.851 120.603 400.097 120.512 400.338C120.423 400.576 120.267 400.843 120.044 401.137C119.823 401.429 119.517 401.785 119.124 402.207L117.587 403.852V403.905H120.769V404.641H116.45Z" fill="#D0D0DA"/>
<rect x="129.486" y="34.1267" width="40.6801" height="393.07" stroke="#3D3D3D" stroke-width="0.784572"/>
<path opacity="0.6" d="M139.002 404.734C138.498 404.734 138.069 404.597 137.715 404.323C137.36 404.047 137.09 403.647 136.902 403.123C136.715 402.597 136.622 401.961 136.622 401.217C136.622 400.477 136.715 399.845 136.902 399.321C137.092 398.795 137.364 398.394 137.718 398.118C138.075 397.839 138.503 397.7 139.002 397.7C139.501 397.7 139.928 397.839 140.283 398.118C140.639 398.394 140.911 398.795 141.098 399.321C141.288 399.845 141.382 400.477 141.382 401.217C141.382 401.961 141.289 402.597 141.102 403.123C140.914 403.647 140.644 404.047 140.289 404.323C139.935 404.597 139.506 404.734 139.002 404.734ZM139.002 403.999C139.501 403.999 139.889 403.758 140.166 403.277C140.442 402.795 140.58 402.109 140.58 401.217C140.58 400.624 140.517 400.119 140.39 399.703C140.265 399.286 140.084 398.968 139.848 398.75C139.614 398.531 139.332 398.422 139.002 398.422C138.507 398.422 138.121 398.666 137.842 399.154C137.563 399.64 137.424 400.328 137.424 401.217C137.424 401.81 137.486 402.314 137.611 402.728C137.736 403.143 137.915 403.458 138.149 403.674C138.386 403.891 138.67 403.999 139.002 403.999ZM142.492 403.236V402.554L145.501 397.793H145.996V398.85H145.662L143.388 402.447V402.501H147.441V403.236H142.492ZM145.715 404.641V403.029V402.712V397.793H146.504V404.641H145.715ZM151.128 397.472L148.921 405.67H148.199L150.405 397.472H151.128ZM154.283 404.734C153.779 404.734 153.35 404.597 152.996 404.323C152.641 404.047 152.37 403.647 152.183 403.123C151.996 402.597 151.902 401.961 151.902 401.217C151.902 400.477 151.996 399.845 152.183 399.321C152.373 398.795 152.645 398.394 152.999 398.118C153.356 397.839 153.784 397.7 154.283 397.7C154.782 397.7 155.209 397.839 155.563 398.118C155.92 398.394 156.192 398.795 156.379 399.321C156.569 399.845 156.663 400.477 156.663 401.217C156.663 401.961 156.57 402.597 156.382 403.123C156.195 403.647 155.924 404.047 155.57 404.323C155.216 404.597 154.787 404.734 154.283 404.734ZM154.283 403.999C154.782 403.999 155.17 403.758 155.446 403.277C155.723 402.795 155.861 402.109 155.861 401.217C155.861 400.624 155.797 400.119 155.67 399.703C155.545 399.286 155.365 398.968 155.129 398.75C154.895 398.531 154.613 398.422 154.283 398.422C153.788 398.422 153.401 398.666 153.123 399.154C152.844 399.64 152.705 400.328 152.705 401.217C152.705 401.81 152.767 402.314 152.892 402.728C153.017 403.143 153.196 403.458 153.43 403.674C153.666 403.891 153.951 403.999 154.283 403.999ZM157.934 404.641V404.039L160.194 401.565C160.459 401.275 160.677 401.023 160.849 400.809C161.021 400.593 161.148 400.39 161.23 400.201C161.315 400.009 161.357 399.808 161.357 399.599C161.357 399.358 161.299 399.15 161.183 398.974C161.07 398.798 160.914 398.662 160.715 398.566C160.517 398.47 160.294 398.422 160.047 398.422C159.784 398.422 159.554 398.477 159.358 398.586C159.164 398.693 159.014 398.843 158.907 399.037C158.802 399.231 158.749 399.458 158.749 399.719H157.96C157.96 399.318 158.053 398.966 158.238 398.663C158.423 398.36 158.675 398.123 158.994 397.954C159.315 397.785 159.674 397.7 160.073 397.7C160.475 397.7 160.83 397.785 161.14 397.954C161.45 398.123 161.693 398.352 161.869 398.639C162.045 398.927 162.133 399.247 162.133 399.599C162.133 399.851 162.087 400.097 161.996 400.338C161.907 400.576 161.751 400.843 161.528 401.137C161.307 401.429 161.001 401.785 160.608 402.207L159.07 403.852V403.905H162.253V404.641H157.934Z" fill="#D0D0DA"/>
<rect x="170.955" y="34.1267" width="40.6801" height="393.07" stroke="#3D3D3D" stroke-width="0.784572"/>
<path opacity="0.6" d="M180.627 404.734C180.123 404.734 179.694 404.597 179.34 404.323C178.986 404.047 178.715 403.647 178.527 403.123C178.34 402.597 178.247 401.961 178.247 401.217C178.247 400.477 178.34 399.845 178.527 399.321C178.717 398.795 178.989 398.394 179.343 398.118C179.7 397.839 180.128 397.7 180.627 397.7C181.126 397.7 181.553 397.839 181.908 398.118C182.264 398.394 182.536 398.795 182.723 399.321C182.913 399.845 183.008 400.477 183.008 401.217C183.008 401.961 182.914 402.597 182.727 403.123C182.539 403.647 182.269 404.047 181.914 404.323C181.56 404.597 181.131 404.734 180.627 404.734ZM180.627 403.999C181.126 403.999 181.514 403.758 181.791 403.277C182.067 402.795 182.205 402.109 182.205 401.217C182.205 400.624 182.142 400.119 182.015 399.703C181.89 399.286 181.709 398.968 181.473 398.75C181.239 398.531 180.957 398.422 180.627 398.422C180.132 398.422 179.746 398.666 179.467 399.154C179.188 399.64 179.049 400.328 179.049 401.217C179.049 401.81 179.111 402.314 179.236 402.728C179.361 403.143 179.54 403.458 179.775 403.674C180.011 403.891 180.295 403.999 180.627 403.999ZM186.418 404.734C186.025 404.734 185.672 404.656 185.358 404.5C185.044 404.344 184.792 404.13 184.602 403.858C184.413 403.586 184.309 403.277 184.291 402.929H185.094C185.125 403.239 185.265 403.495 185.515 403.698C185.767 403.898 186.068 403.999 186.418 403.999C186.699 403.999 186.948 403.933 187.167 403.801C187.387 403.67 187.56 403.489 187.685 403.26C187.812 403.028 187.875 402.766 187.875 402.474C187.875 402.175 187.81 401.909 187.678 401.675C187.549 401.439 187.371 401.253 187.143 401.117C186.916 400.981 186.656 400.912 186.364 400.909C186.155 400.907 185.94 400.94 185.719 401.006C185.498 401.071 185.317 401.155 185.174 401.257L184.398 401.164L184.813 397.793H188.37V398.529H185.508L185.268 400.548H185.308C185.448 400.437 185.624 400.344 185.836 400.271C186.048 400.197 186.268 400.161 186.498 400.161C186.917 400.161 187.29 400.261 187.618 400.461C187.948 400.66 188.206 400.932 188.394 401.277C188.583 401.623 188.678 402.017 188.678 402.461C188.678 402.898 188.58 403.288 188.384 403.631C188.19 403.972 187.922 404.242 187.581 404.44C187.24 404.636 186.852 404.734 186.418 404.734ZM192.44 397.472L190.233 405.67H189.511L191.718 397.472H192.44ZM195.595 404.734C195.092 404.734 194.662 404.597 194.308 404.323C193.954 404.047 193.683 403.647 193.496 403.123C193.308 402.597 193.215 401.961 193.215 401.217C193.215 400.477 193.308 399.845 193.496 399.321C193.685 398.795 193.957 398.394 194.311 398.118C194.668 397.839 195.096 397.7 195.595 397.7C196.095 397.7 196.521 397.839 196.876 398.118C197.232 398.394 197.504 398.795 197.692 399.321C197.881 399.845 197.976 400.477 197.976 401.217C197.976 401.961 197.882 402.597 197.695 403.123C197.508 403.647 197.237 404.047 196.882 404.323C196.528 404.597 196.099 404.734 195.595 404.734ZM195.595 403.999C196.095 403.999 196.482 403.758 196.759 403.277C197.035 402.795 197.173 402.109 197.173 401.217C197.173 400.624 197.11 400.119 196.983 399.703C196.858 399.286 196.677 398.968 196.441 398.75C196.207 398.531 195.925 398.422 195.595 398.422C195.1 398.422 194.714 398.666 194.435 399.154C194.156 399.64 194.017 400.328 194.017 401.217C194.017 401.81 194.08 402.314 194.204 402.728C194.329 403.143 194.509 403.458 194.743 403.674C194.979 403.891 195.263 403.999 195.595 403.999ZM199.246 404.641V404.039L201.506 401.565C201.772 401.275 201.99 401.023 202.162 400.809C202.333 400.593 202.46 400.39 202.543 400.201C202.627 400.009 202.67 399.808 202.67 399.599C202.67 399.358 202.612 399.15 202.496 398.974C202.382 398.798 202.226 398.662 202.028 398.566C201.829 398.47 201.607 398.422 201.359 398.422C201.096 398.422 200.867 398.477 200.67 398.586C200.477 398.693 200.326 398.843 200.219 399.037C200.114 399.231 200.062 399.458 200.062 399.719H199.273C199.273 399.318 199.365 398.966 199.55 398.663C199.735 398.36 199.987 398.123 200.306 397.954C200.627 397.785 200.987 397.7 201.386 397.7C201.787 397.7 202.143 397.785 202.452 397.954C202.762 398.123 203.005 398.352 203.181 398.639C203.357 398.927 203.445 399.247 203.445 399.599C203.445 399.851 203.4 400.097 203.308 400.338C203.219 400.576 203.063 400.843 202.84 401.137C202.62 401.429 202.313 401.785 201.921 402.207L200.383 403.852V403.905H203.566V404.641H199.246Z" fill="#D0D0DA"/>
<rect x="212.416" y="34.1267" width="40.6801" height="393.07" stroke="#3D3D3D" stroke-width="0.784572"/>
<path opacity="0.6" d="M222.014 404.734C221.511 404.734 221.082 404.597 220.727 404.323C220.373 404.047 220.102 403.647 219.915 403.123C219.728 402.597 219.634 401.961 219.634 401.217C219.634 400.477 219.728 399.845 219.915 399.321C220.104 398.795 220.376 398.394 220.731 398.118C221.087 397.839 221.515 397.7 222.014 397.7C222.514 397.7 222.941 397.839 223.295 398.118C223.652 398.394 223.924 398.795 224.111 399.321C224.3 399.845 224.395 400.477 224.395 401.217C224.395 401.961 224.301 402.597 224.114 403.123C223.927 403.647 223.656 404.047 223.302 404.323C222.947 404.597 222.518 404.734 222.014 404.734ZM222.014 403.999C222.514 403.999 222.902 403.758 223.178 403.277C223.454 402.795 223.593 402.109 223.593 401.217C223.593 400.624 223.529 400.119 223.402 399.703C223.277 399.286 223.097 398.968 222.86 398.75C222.626 398.531 222.344 398.422 222.014 398.422C221.52 398.422 221.133 398.666 220.854 399.154C220.576 399.64 220.436 400.328 220.436 401.217C220.436 401.81 220.499 402.314 220.624 402.728C220.748 403.143 220.928 403.458 221.162 403.674C221.398 403.891 221.682 403.999 222.014 403.999ZM227.939 404.734C227.658 404.73 227.377 404.676 227.096 404.574C226.816 404.471 226.559 404.298 226.327 404.056C226.096 403.81 225.909 403.479 225.769 403.063C225.629 402.644 225.558 402.118 225.558 401.485C225.558 400.878 225.615 400.341 225.729 399.873C225.843 399.403 226.008 399.007 226.224 398.686C226.44 398.363 226.701 398.118 227.006 397.951C227.314 397.783 227.66 397.7 228.046 397.7C228.429 397.7 228.77 397.777 229.069 397.931C229.37 398.082 229.615 398.294 229.804 398.566C229.994 398.838 230.117 399.151 230.172 399.505H229.356C229.281 399.198 229.134 398.942 228.915 398.74C228.697 398.537 228.407 398.435 228.046 398.435C227.515 398.435 227.097 398.666 226.792 399.127C226.489 399.589 226.336 400.236 226.334 401.07H226.388C226.512 400.88 226.661 400.719 226.832 400.585C227.006 400.449 227.198 400.344 227.407 400.271C227.617 400.197 227.839 400.161 228.073 400.161C228.465 400.161 228.824 400.259 229.149 400.455C229.475 400.649 229.735 400.917 229.932 401.261C230.128 401.602 230.226 401.993 230.226 402.434C230.226 402.858 230.131 403.245 229.942 403.598C229.752 403.947 229.486 404.226 229.142 404.433C228.801 404.638 228.4 404.739 227.939 404.734ZM227.939 403.999C228.22 403.999 228.472 403.928 228.694 403.788C228.92 403.648 229.097 403.459 229.226 403.223C229.358 402.987 229.423 402.724 229.423 402.434C229.423 402.151 229.36 401.894 229.233 401.662C229.108 401.428 228.935 401.242 228.715 401.103C228.496 400.965 228.246 400.896 227.966 400.896C227.754 400.896 227.557 400.938 227.374 401.023C227.191 401.106 227.031 401.219 226.892 401.364C226.756 401.509 226.649 401.675 226.571 401.862C226.493 402.047 226.454 402.242 226.454 402.447C226.454 402.719 226.518 402.973 226.645 403.21C226.774 403.446 226.95 403.637 227.173 403.781C227.398 403.926 227.654 403.999 227.939 403.999ZM233.974 397.472L231.768 405.67H231.046L233.252 397.472H233.974ZM237.13 404.734C236.626 404.734 236.197 404.597 235.843 404.323C235.488 404.047 235.217 403.647 235.03 403.123C234.843 402.597 234.749 401.961 234.749 401.217C234.749 400.477 234.843 399.845 235.03 399.321C235.22 398.795 235.491 398.394 235.846 398.118C236.203 397.839 236.63 397.7 237.13 397.7C237.629 397.7 238.056 397.839 238.41 398.118C238.767 398.394 239.039 398.795 239.226 399.321C239.415 399.845 239.51 400.477 239.51 401.217C239.51 401.961 239.417 402.597 239.229 403.123C239.042 403.647 238.771 404.047 238.417 404.323C238.063 404.597 237.633 404.734 237.13 404.734ZM237.13 403.999C237.629 403.999 238.017 403.758 238.293 403.277C238.57 402.795 238.708 402.109 238.708 401.217C238.708 400.624 238.644 400.119 238.517 399.703C238.392 399.286 238.212 398.968 237.976 398.75C237.742 398.531 237.46 398.422 237.13 398.422C236.635 398.422 236.248 398.666 235.97 399.154C235.691 399.64 235.552 400.328 235.552 401.217C235.552 401.81 235.614 402.314 235.739 402.728C235.864 403.143 236.043 403.458 236.277 403.674C236.513 403.891 236.798 403.999 237.13 403.999ZM240.781 404.641V404.039L243.041 401.565C243.306 401.275 243.524 401.023 243.696 400.809C243.868 400.593 243.995 400.39 244.077 400.201C244.162 400.009 244.204 399.808 244.204 399.599C244.204 399.358 244.146 399.15 244.03 398.974C243.917 398.798 243.761 398.662 243.562 398.566C243.364 398.47 243.141 398.422 242.894 398.422C242.631 398.422 242.401 398.477 242.205 398.586C242.011 398.693 241.861 398.843 241.754 399.037C241.649 399.231 241.596 399.458 241.596 399.719H240.807C240.807 399.318 240.9 398.966 241.085 398.663C241.27 398.36 241.522 398.123 241.841 397.954C242.161 397.785 242.521 397.7 242.92 397.7C243.322 397.7 243.677 397.785 243.987 397.954C244.297 398.123 244.54 398.352 244.716 398.639C244.892 398.927 244.98 399.247 244.98 399.599C244.98 399.851 244.934 400.097 244.843 400.338C244.754 400.576 244.598 400.843 244.375 401.137C244.154 401.429 243.848 401.785 243.455 402.207L241.917 403.852V403.905H245.1V404.641H240.781Z" fill="#D0D0DA"/>
<rect x="253.884" y="34.1267" width="40.6801" height="393.07" stroke="#3D3D3D" stroke-width="0.784572"/>
<path opacity="0.6" d="M263.823 404.734C263.32 404.734 262.891 404.597 262.536 404.323C262.182 404.047 261.911 403.647 261.724 403.123C261.537 402.597 261.443 401.961 261.443 401.217C261.443 400.477 261.537 399.845 261.724 399.321C261.913 398.795 262.185 398.394 262.54 398.118C262.896 397.839 263.324 397.7 263.823 397.7C264.323 397.7 264.75 397.839 265.104 398.118C265.461 398.394 265.732 398.795 265.92 399.321C266.109 399.845 266.204 400.477 266.204 401.217C266.204 401.961 266.11 402.597 265.923 403.123C265.736 403.647 265.465 404.047 265.111 404.323C264.756 404.597 264.327 404.734 263.823 404.734ZM263.823 403.999C264.323 403.999 264.711 403.758 264.987 403.277C265.263 402.795 265.401 402.109 265.401 401.217C265.401 400.624 265.338 400.119 265.211 399.703C265.086 399.286 264.906 398.968 264.669 398.75C264.435 398.531 264.153 398.422 263.823 398.422C263.329 398.422 262.942 398.666 262.663 399.154C262.385 399.64 262.245 400.328 262.245 401.217C262.245 401.81 262.308 402.314 262.433 402.728C262.557 403.143 262.737 403.458 262.971 403.674C263.207 403.891 263.491 403.999 263.823 403.999ZM267.504 404.641L270.567 398.582V398.529H267.036V397.793H271.423V398.569L268.374 404.641H267.504ZM275.103 397.472L272.896 405.67H272.174L274.381 397.472H275.103ZM278.258 404.734C277.755 404.734 277.326 404.597 276.971 404.323C276.617 404.047 276.346 403.647 276.159 403.123C275.971 402.597 275.878 401.961 275.878 401.217C275.878 400.477 275.971 399.845 276.159 399.321C276.348 398.795 276.62 398.394 276.974 398.118C277.331 397.839 277.759 397.7 278.258 397.7C278.758 397.7 279.184 397.839 279.539 398.118C279.895 398.394 280.167 398.795 280.355 399.321C280.544 399.845 280.639 400.477 280.639 401.217C280.639 401.961 280.545 402.597 280.358 403.123C280.171 403.647 279.9 404.047 279.545 404.323C279.191 404.597 278.762 404.734 278.258 404.734ZM278.258 403.999C278.758 403.999 279.145 403.758 279.422 403.277C279.698 402.795 279.836 402.109 279.836 401.217C279.836 400.624 279.773 400.119 279.646 399.703C279.521 399.286 279.34 398.968 279.104 398.75C278.87 398.531 278.588 398.422 278.258 398.422C277.763 398.422 277.377 398.666 277.098 399.154C276.82 399.64 276.68 400.328 276.68 401.217C276.68 401.81 276.743 402.314 276.867 402.728C276.992 403.143 277.172 403.458 277.406 403.674C277.642 403.891 277.926 403.999 278.258 403.999ZM281.909 404.641V404.039L284.169 401.565C284.435 401.275 284.653 401.023 284.825 400.809C284.996 400.593 285.123 400.39 285.206 400.201C285.29 400.009 285.333 399.808 285.333 399.599C285.333 399.358 285.275 399.15 285.159 398.974C285.045 398.798 284.889 398.662 284.691 398.566C284.493 398.47 284.27 398.422 284.022 398.422C283.759 398.422 283.53 398.477 283.333 398.586C283.14 398.693 282.989 398.843 282.882 399.037C282.777 399.231 282.725 399.458 282.725 399.719H281.936C281.936 399.318 282.028 398.966 282.213 398.663C282.398 398.36 282.65 398.123 282.969 397.954C283.29 397.785 283.65 397.7 284.049 397.7C284.45 397.7 284.806 397.785 285.115 397.954C285.425 398.123 285.668 398.352 285.844 398.639C286.02 398.927 286.108 399.247 286.108 399.599C286.108 399.851 286.063 400.097 285.971 400.338C285.882 400.576 285.726 400.843 285.503 401.137C285.283 401.429 284.976 401.785 284.584 402.207L283.046 403.852V403.905H286.229V404.641H281.909Z" fill="#D0D0DA"/>
<rect x="295.345" y="34.1267" width="40.6801" height="393.07" stroke="#3D3D3D" stroke-width="0.784572"/>
<path opacity="0.6" d="M304.981 404.734C304.477 404.734 304.048 404.597 303.694 404.323C303.339 404.047 303.069 403.647 302.881 403.123C302.694 402.597 302.6 401.961 302.6 401.217C302.6 400.477 302.694 399.845 302.881 399.321C303.071 398.795 303.343 398.394 303.697 398.118C304.054 397.839 304.482 397.7 304.981 397.7C305.48 397.7 305.907 397.839 306.261 398.118C306.618 398.394 306.89 398.795 307.077 399.321C307.267 399.845 307.361 400.477 307.361 401.217C307.361 401.961 307.268 402.597 307.081 403.123C306.893 403.647 306.623 404.047 306.268 404.323C305.914 404.597 305.485 404.734 304.981 404.734ZM304.981 403.999C305.48 403.999 305.868 403.758 306.144 403.277C306.421 402.795 306.559 402.109 306.559 401.217C306.559 400.624 306.495 400.119 306.368 399.703C306.244 399.286 306.063 398.968 305.827 398.75C305.593 398.531 305.311 398.422 304.981 398.422C304.486 398.422 304.099 398.666 303.821 399.154C303.542 399.64 303.403 400.328 303.403 401.217C303.403 401.81 303.465 402.314 303.59 402.728C303.715 403.143 303.894 403.458 304.128 403.674C304.365 403.891 304.649 403.999 304.981 403.999ZM310.825 404.734C310.366 404.734 309.96 404.653 309.608 404.49C309.258 404.325 308.985 404.099 308.789 403.811C308.593 403.522 308.496 403.192 308.498 402.822C308.496 402.532 308.553 402.265 308.669 402.019C308.785 401.772 308.943 401.566 309.143 401.401C309.346 401.234 309.572 401.128 309.822 401.083V401.043C309.494 400.958 309.234 400.775 309.04 400.492C308.846 400.206 308.75 399.882 308.752 399.519C308.75 399.171 308.838 398.86 309.016 398.586C309.195 398.312 309.44 398.095 309.752 397.937C310.066 397.779 310.424 397.7 310.825 397.7C311.222 397.7 311.576 397.779 311.888 397.937C312.2 398.095 312.446 398.312 312.624 398.586C312.804 398.86 312.896 399.171 312.898 399.519C312.896 399.882 312.797 400.206 312.6 400.492C312.406 400.775 312.149 400.958 311.828 401.043V401.083C312.076 401.128 312.298 401.234 312.497 401.401C312.695 401.566 312.853 401.772 312.972 402.019C313.09 402.265 313.15 402.532 313.152 402.822C313.15 403.192 313.05 403.522 312.851 403.811C312.655 404.099 312.382 404.325 312.032 404.49C311.684 404.653 311.282 404.734 310.825 404.734ZM310.825 403.999C311.135 403.999 311.402 403.949 311.628 403.848C311.853 403.748 312.026 403.606 312.149 403.424C312.272 403.241 312.334 403.027 312.336 402.782C312.334 402.523 312.267 402.295 312.136 402.096C312.004 401.898 311.825 401.742 311.597 401.628C311.372 401.515 311.115 401.458 310.825 401.458C310.533 401.458 310.272 401.515 310.043 401.628C309.815 401.742 309.636 401.898 309.504 402.096C309.375 402.295 309.312 402.523 309.314 402.782C309.312 403.027 309.371 403.241 309.491 403.424C309.614 403.606 309.789 403.748 310.016 403.848C310.243 403.949 310.513 403.999 310.825 403.999ZM310.825 400.749C311.07 400.749 311.288 400.7 311.477 400.602C311.669 400.504 311.819 400.367 311.928 400.191C312.038 400.015 312.093 399.808 312.096 399.572C312.093 399.34 312.039 399.139 311.932 398.967C311.825 398.793 311.677 398.659 311.487 398.566C311.298 398.47 311.077 398.422 310.825 398.422C310.569 398.422 310.345 398.47 310.153 398.566C309.961 398.659 309.813 398.793 309.708 398.967C309.604 399.139 309.552 399.34 309.555 399.572C309.552 399.808 309.605 400.015 309.712 400.191C309.821 400.367 309.971 400.504 310.163 400.602C310.355 400.7 310.575 400.749 310.825 400.749ZM316.867 397.472L314.661 405.67H313.939L316.145 397.472H316.867ZM320.023 404.734C319.519 404.734 319.09 404.597 318.735 404.323C318.381 404.047 318.11 403.647 317.923 403.123C317.736 402.597 317.642 401.961 317.642 401.217C317.642 400.477 317.736 399.845 317.923 399.321C318.112 398.795 318.384 398.394 318.739 398.118C319.095 397.839 319.523 397.7 320.023 397.7C320.522 397.7 320.949 397.839 321.303 398.118C321.66 398.394 321.932 398.795 322.119 399.321C322.308 399.845 322.403 400.477 322.403 401.217C322.403 401.961 322.309 402.597 322.122 403.123C321.935 403.647 321.664 404.047 321.31 404.323C320.955 404.597 320.526 404.734 320.023 404.734ZM320.023 403.999C320.522 403.999 320.91 403.758 321.186 403.277C321.463 402.795 321.601 402.109 321.601 401.217C321.601 400.624 321.537 400.119 321.41 399.703C321.285 399.286 321.105 398.968 320.869 398.75C320.634 398.531 320.353 398.422 320.023 398.422C319.528 398.422 319.141 398.666 318.862 399.154C318.584 399.64 318.445 400.328 318.445 401.217C318.445 401.81 318.507 402.314 318.632 402.728C318.757 403.143 318.936 403.458 319.17 403.674C319.406 403.891 319.691 403.999 320.023 403.999ZM323.674 404.641V404.039L325.934 401.565C326.199 401.275 326.417 401.023 326.589 400.809C326.761 400.593 326.888 400.39 326.97 400.201C327.055 400.009 327.097 399.808 327.097 399.599C327.097 399.358 327.039 399.15 326.923 398.974C326.81 398.798 326.654 398.662 326.455 398.566C326.257 398.47 326.034 398.422 325.787 398.422C325.524 398.422 325.294 398.477 325.098 398.586C324.904 398.693 324.753 398.843 324.646 399.037C324.542 399.231 324.489 399.458 324.489 399.719H323.7C323.7 399.318 323.793 398.966 323.978 398.663C324.163 398.36 324.415 398.123 324.733 397.954C325.054 397.785 325.414 397.7 325.813 397.7C326.215 397.7 326.57 397.785 326.88 397.954C327.19 398.123 327.433 398.352 327.609 398.639C327.785 398.927 327.873 399.247 327.873 399.599C327.873 399.851 327.827 400.097 327.736 400.338C327.647 400.576 327.491 400.843 327.268 401.137C327.047 401.429 326.741 401.785 326.348 402.207L324.81 403.852V403.905H327.993V404.641H323.674Z" fill="#D0D0DA"/>
<rect x="336.814" y="34.1267" width="40.6801" height="393.07" stroke="#3D3D3D" stroke-width="0.784572"/>
<path opacity="0.6" d="M346.413 404.734C345.909 404.734 345.48 404.597 345.126 404.323C344.771 404.047 344.501 403.647 344.313 403.123C344.126 402.597 344.032 401.961 344.032 401.217C344.032 400.477 344.126 399.845 344.313 399.321C344.503 398.795 344.775 398.394 345.129 398.118C345.486 397.839 345.914 397.7 346.413 397.7C346.912 397.7 347.339 397.839 347.693 398.118C348.05 398.394 348.322 398.795 348.509 399.321C348.699 399.845 348.793 400.477 348.793 401.217C348.793 401.961 348.7 402.597 348.513 403.123C348.325 403.647 348.054 404.047 347.7 404.323C347.346 404.597 346.917 404.734 346.413 404.734ZM346.413 403.999C346.912 403.999 347.3 403.758 347.576 403.277C347.853 402.795 347.991 402.109 347.991 401.217C347.991 400.624 347.927 400.119 347.8 399.703C347.676 399.286 347.495 398.968 347.259 398.75C347.025 398.531 346.743 398.422 346.413 398.422C345.918 398.422 345.531 398.666 345.253 399.154C344.974 399.64 344.835 400.328 344.835 401.217C344.835 401.81 344.897 402.314 345.022 402.728C345.147 403.143 345.326 403.458 345.56 403.674C345.797 403.891 346.081 403.999 346.413 403.999ZM352.244 397.7C352.525 397.702 352.805 397.756 353.086 397.86C353.367 397.965 353.623 398.139 353.855 398.382C354.087 398.623 354.273 398.951 354.414 399.368C354.554 399.785 354.624 400.308 354.624 400.936C354.624 401.545 354.566 402.085 354.45 402.558C354.337 403.028 354.172 403.425 353.955 403.748C353.742 404.071 353.481 404.316 353.173 404.483C352.868 404.651 352.522 404.734 352.137 404.734C351.753 404.734 351.411 404.658 351.11 404.507C350.812 404.353 350.566 404.14 350.375 403.868C350.185 403.594 350.064 403.277 350.01 402.915H350.826C350.9 403.23 351.046 403.489 351.264 403.694C351.485 403.897 351.776 403.999 352.137 403.999C352.665 403.999 353.082 403.768 353.387 403.307C353.695 402.845 353.849 402.193 353.849 401.351H353.795C353.67 401.538 353.522 401.7 353.35 401.836C353.179 401.972 352.988 402.076 352.779 402.15C352.569 402.223 352.346 402.26 352.11 402.26C351.718 402.26 351.358 402.163 351.03 401.969C350.705 401.773 350.444 401.505 350.248 401.164C350.054 400.82 349.957 400.428 349.957 399.987C349.957 399.568 350.05 399.184 350.238 398.837C350.427 398.487 350.692 398.208 351.033 398.001C351.377 397.793 351.78 397.693 352.244 397.7ZM352.244 398.435C351.963 398.435 351.71 398.506 351.485 398.646C351.262 398.784 351.085 398.971 350.953 399.208C350.824 399.442 350.759 399.701 350.759 399.987C350.759 400.272 350.822 400.532 350.946 400.766C351.074 400.997 351.246 401.182 351.465 401.321C351.685 401.457 351.936 401.525 352.217 401.525C352.429 401.525 352.626 401.483 352.809 401.401C352.991 401.316 353.151 401.201 353.287 401.057C353.425 400.909 353.533 400.743 353.611 400.558C353.689 400.371 353.728 400.176 353.728 399.973C353.728 399.706 353.664 399.455 353.534 399.221C353.407 398.987 353.231 398.798 353.006 398.653C352.783 398.508 352.529 398.435 352.244 398.435ZM358.373 397.472L356.166 405.67H355.444L357.651 397.472H358.373ZM361.528 404.734C361.024 404.734 360.595 404.597 360.241 404.323C359.887 404.047 359.616 403.647 359.429 403.123C359.241 402.597 359.148 401.961 359.148 401.217C359.148 400.477 359.241 399.845 359.429 399.321C359.618 398.795 359.89 398.394 360.244 398.118C360.601 397.839 361.029 397.7 361.528 397.7C362.027 397.7 362.454 397.839 362.809 398.118C363.165 398.394 363.437 398.795 363.624 399.321C363.814 399.845 363.909 400.477 363.909 401.217C363.909 401.961 363.815 402.597 363.628 403.123C363.441 403.647 363.17 404.047 362.815 404.323C362.461 404.597 362.032 404.734 361.528 404.734ZM361.528 403.999C362.027 403.999 362.415 403.758 362.692 403.277C362.968 402.795 363.106 402.109 363.106 401.217C363.106 400.624 363.043 400.119 362.916 399.703C362.791 399.286 362.61 398.968 362.374 398.75C362.14 398.531 361.858 398.422 361.528 398.422C361.033 398.422 360.647 398.666 360.368 399.154C360.089 399.64 359.95 400.328 359.95 401.217C359.95 401.81 360.013 402.314 360.137 402.728C360.262 403.143 360.442 403.458 360.676 403.674C360.912 403.891 361.196 403.999 361.528 403.999ZM365.179 404.641V404.039L367.439 401.565C367.704 401.275 367.923 401.023 368.094 400.809C368.266 400.593 368.393 400.39 368.476 400.201C368.56 400.009 368.603 399.808 368.603 399.599C368.603 399.358 368.545 399.15 368.429 398.974C368.315 398.798 368.159 398.662 367.961 398.566C367.762 398.47 367.539 398.422 367.292 398.422C367.029 398.422 366.8 398.477 366.603 398.586C366.409 398.693 366.259 398.843 366.152 399.037C366.047 399.231 365.995 399.458 365.995 399.719H365.206C365.206 399.318 365.298 398.966 365.483 398.663C365.668 398.36 365.92 398.123 366.239 397.954C366.56 397.785 366.92 397.7 367.319 397.7C367.72 397.7 368.076 397.785 368.385 397.954C368.695 398.123 368.938 398.352 369.114 398.639C369.29 398.927 369.378 399.247 369.378 399.599C369.378 399.851 369.333 400.097 369.241 400.338C369.152 400.576 368.996 400.843 368.773 401.137C368.553 401.429 368.246 401.785 367.854 402.207L366.316 403.852V403.905H369.499V404.641H365.179Z" fill="#D0D0DA"/>
<rect x="378.275" y="34.1267" width="40.6801" height="393.07" stroke="#3D3D3D" stroke-width="0.784572"/>
<path opacity="0.6" d="M388.797 397.793V404.641H387.968V398.663H387.928L386.256 399.773V398.93L387.968 397.793H388.797ZM393 404.734C392.496 404.734 392.067 404.597 391.712 404.323C391.358 404.047 391.087 403.647 390.9 403.123C390.713 402.597 390.619 401.961 390.619 401.217C390.619 400.477 390.713 399.845 390.9 399.321C391.089 398.795 391.361 398.394 391.716 398.118C392.072 397.839 392.5 397.7 393 397.7C393.499 397.7 393.926 397.839 394.28 398.118C394.637 398.394 394.909 398.795 395.096 399.321C395.285 399.845 395.38 400.477 395.38 401.217C395.38 401.961 395.286 402.597 395.099 403.123C394.912 403.647 394.641 404.047 394.287 404.323C393.932 404.597 393.503 404.734 393 404.734ZM393 403.999C393.499 403.999 393.887 403.758 394.163 403.277C394.439 402.795 394.578 402.109 394.578 401.217C394.578 400.624 394.514 400.119 394.387 399.703C394.262 399.286 394.082 398.968 393.845 398.75C393.611 398.531 393.329 398.422 393 398.422C392.505 398.422 392.118 398.666 391.839 399.154C391.561 399.64 391.422 400.328 391.422 401.217C391.422 401.81 391.484 402.314 391.609 402.728C391.734 403.143 391.913 403.458 392.147 403.674C392.383 403.891 392.668 403.999 393 403.999ZM399.084 397.472L396.878 405.67H396.156L398.362 397.472H399.084ZM402.24 404.734C401.736 404.734 401.307 404.597 400.953 404.323C400.598 404.047 400.327 403.647 400.14 403.123C399.953 402.597 399.859 401.961 399.859 401.217C399.859 400.477 399.953 399.845 400.14 399.321C400.33 398.795 400.602 398.394 400.956 398.118C401.313 397.839 401.741 397.7 402.24 397.7C402.739 397.7 403.166 397.839 403.52 398.118C403.877 398.394 404.149 398.795 404.336 399.321C404.526 399.845 404.62 400.477 404.62 401.217C404.62 401.961 404.527 402.597 404.339 403.123C404.152 403.647 403.881 404.047 403.527 404.323C403.173 404.597 402.744 404.734 402.24 404.734ZM402.24 403.999C402.739 403.999 403.127 403.758 403.403 403.277C403.68 402.795 403.818 402.109 403.818 401.217C403.818 400.624 403.754 400.119 403.627 399.703C403.502 399.286 403.322 398.968 403.086 398.75C402.852 398.531 402.57 398.422 402.24 398.422C401.745 398.422 401.358 398.666 401.08 399.154C400.801 399.64 400.662 400.328 400.662 401.217C400.662 401.81 400.724 402.314 400.849 402.728C400.974 403.143 401.153 403.458 401.387 403.674C401.623 403.891 401.908 403.999 402.24 403.999ZM405.891 404.641V404.039L408.151 401.565C408.416 401.275 408.634 401.023 408.806 400.809C408.978 400.593 409.105 400.39 409.187 400.201C409.272 400.009 409.314 399.808 409.314 399.599C409.314 399.358 409.256 399.15 409.14 398.974C409.027 398.798 408.871 398.662 408.672 398.566C408.474 398.47 408.251 398.422 408.004 398.422C407.741 398.422 407.511 398.477 407.315 398.586C407.121 398.693 406.971 398.843 406.864 399.037C406.759 399.231 406.706 399.458 406.706 399.719H405.917C405.917 399.318 406.01 398.966 406.195 398.663C406.38 398.36 406.632 398.123 406.951 397.954C407.272 397.785 407.631 397.7 408.03 397.7C408.432 397.7 408.787 397.785 409.097 397.954C409.407 398.123 409.65 398.352 409.826 398.639C410.002 398.927 410.09 399.247 410.09 399.599C410.09 399.851 410.044 400.097 409.953 400.338C409.864 400.576 409.708 400.843 409.485 401.137C409.264 401.429 408.958 401.785 408.565 402.207L407.027 403.852V403.905H410.21V404.641H405.891Z" fill="#D0D0DA"/>
<rect x="419.744" y="34.1267" width="40.6801" height="393.07" stroke="#3D3D3D" stroke-width="0.784572"/>
<path opacity="0.6" d="M431.02 397.793V404.641H430.191V398.663H430.15L428.479 399.773V398.93L430.191 397.793H431.02ZM435.396 397.793V404.641H434.567V398.663H434.527L432.855 399.773V398.93L434.567 397.793H435.396ZM439.799 397.472L437.593 405.67H436.871L439.077 397.472H439.799ZM442.955 404.734C442.451 404.734 442.022 404.597 441.667 404.323C441.313 404.047 441.042 403.647 440.855 403.123C440.668 402.597 440.574 401.961 440.574 401.217C440.574 400.477 440.668 399.845 440.855 399.321C441.044 398.795 441.316 398.394 441.671 398.118C442.027 397.839 442.455 397.7 442.955 397.7C443.454 397.7 443.881 397.839 444.235 398.118C444.592 398.394 444.864 398.795 445.051 399.321C445.24 399.845 445.335 400.477 445.335 401.217C445.335 401.961 445.241 402.597 445.054 403.123C444.867 403.647 444.596 404.047 444.242 404.323C443.887 404.597 443.458 404.734 442.955 404.734ZM442.955 403.999C443.454 403.999 443.842 403.758 444.118 403.277C444.394 402.795 444.533 402.109 444.533 401.217C444.533 400.624 444.469 400.119 444.342 399.703C444.217 399.286 444.037 398.968 443.8 398.75C443.566 398.531 443.284 398.422 442.955 398.422C442.46 398.422 442.073 398.666 441.794 399.154C441.516 399.64 441.377 400.328 441.377 401.217C441.377 401.81 441.439 402.314 441.564 402.728C441.689 403.143 441.868 403.458 442.102 403.674C442.338 403.891 442.622 403.999 442.955 403.999ZM446.606 404.641V404.039L448.866 401.565C449.131 401.275 449.349 401.023 449.521 400.809C449.693 400.593 449.82 400.39 449.902 400.201C449.987 400.009 450.029 399.808 450.029 399.599C450.029 399.358 449.971 399.15 449.855 398.974C449.742 398.798 449.586 398.662 449.387 398.566C449.189 398.47 448.966 398.422 448.719 398.422C448.456 398.422 448.226 398.477 448.03 398.586C447.836 398.693 447.685 398.843 447.578 399.037C447.474 399.231 447.421 399.458 447.421 399.719H446.632C446.632 399.318 446.725 398.966 446.91 398.663C447.095 398.36 447.347 398.123 447.665 397.954C447.986 397.785 448.346 397.7 448.745 397.7C449.146 397.7 449.502 397.785 449.812 397.954C450.122 398.123 450.365 398.352 450.541 398.639C450.717 398.927 450.805 399.247 450.805 399.599C450.805 399.851 450.759 400.097 450.668 400.338C450.579 400.576 450.423 400.843 450.2 401.137C449.979 401.429 449.672 401.785 449.28 402.207L447.742 403.852V403.905H450.925V404.641H446.606Z" fill="#D0D0DA"/>
<rect x="461.205" y="34.1267" width="40.6801" height="393.07" stroke="#3D3D3D" stroke-width="0.784572"/>
<path opacity="0.6" d="M471.819 397.793V404.641H470.99V398.663H470.949L469.278 399.773V398.93L470.99 397.793H471.819ZM473.788 404.641V404.039L476.048 401.565C476.313 401.275 476.532 401.023 476.703 400.809C476.875 400.593 477.002 400.39 477.084 400.201C477.169 400.009 477.211 399.808 477.211 399.599C477.211 399.358 477.154 399.15 477.038 398.974C476.924 398.798 476.768 398.662 476.57 398.566C476.371 398.47 476.148 398.422 475.901 398.422C475.638 398.422 475.408 398.477 475.212 398.586C475.018 398.693 474.868 398.843 474.761 399.037C474.656 399.231 474.604 399.458 474.604 399.719H473.815C473.815 399.318 473.907 398.966 474.092 398.663C474.277 398.36 474.529 398.123 474.848 397.954C475.169 397.785 475.529 397.7 475.928 397.7C476.329 397.7 476.684 397.785 476.994 397.954C477.304 398.123 477.547 398.352 477.723 398.639C477.899 398.927 477.987 399.247 477.987 399.599C477.987 399.851 477.941 400.097 477.85 400.338C477.761 400.576 477.605 400.843 477.382 401.137C477.161 401.429 476.855 401.785 476.463 402.207L474.925 403.852V403.905H478.107V404.641H473.788ZM481.922 397.472L479.716 405.67H478.993L481.2 397.472H481.922ZM485.078 404.734C484.574 404.734 484.145 404.597 483.79 404.323C483.436 404.047 483.165 403.647 482.978 403.123C482.791 402.597 482.697 401.961 482.697 401.217C482.697 400.477 482.791 399.845 482.978 399.321C483.167 398.795 483.439 398.394 483.794 398.118C484.15 397.839 484.578 397.7 485.078 397.7C485.577 397.7 486.004 397.839 486.358 398.118C486.715 398.394 486.987 398.795 487.174 399.321C487.363 399.845 487.458 400.477 487.458 401.217C487.458 401.961 487.364 402.597 487.177 403.123C486.99 403.647 486.719 404.047 486.365 404.323C486.01 404.597 485.581 404.734 485.078 404.734ZM485.078 403.999C485.577 403.999 485.965 403.758 486.241 403.277C486.517 402.795 486.656 402.109 486.656 401.217C486.656 400.624 486.592 400.119 486.465 399.703C486.34 399.286 486.16 398.968 485.923 398.75C485.689 398.531 485.407 398.422 485.078 398.422C484.583 398.422 484.196 398.666 483.917 399.154C483.639 399.64 483.499 400.328 483.499 401.217C483.499 401.81 483.562 402.314 483.687 402.728C483.812 403.143 483.991 403.458 484.225 403.674C484.461 403.891 484.745 403.999 485.078 403.999ZM488.728 404.641V404.039L490.989 401.565C491.254 401.275 491.472 401.023 491.644 400.809C491.815 400.593 491.943 400.39 492.025 400.201C492.11 400.009 492.152 399.808 492.152 399.599C492.152 399.358 492.094 399.15 491.978 398.974C491.865 398.798 491.708 398.662 491.51 398.566C491.312 398.47 491.089 398.422 490.841 398.422C490.578 398.422 490.349 398.477 490.153 398.586C489.959 398.693 489.808 398.843 489.701 399.037C489.597 399.231 489.544 399.458 489.544 399.719H488.755C488.755 399.318 488.848 398.966 489.033 398.663C489.218 398.36 489.47 398.123 489.788 397.954C490.109 397.785 490.469 397.7 490.868 397.7C491.269 397.7 491.625 397.785 491.935 397.954C492.245 398.123 492.487 398.352 492.664 398.639C492.84 398.927 492.928 399.247 492.928 399.599C492.928 399.851 492.882 400.097 492.791 400.338C492.701 400.576 492.545 400.843 492.323 401.137C492.102 401.429 491.795 401.785 491.403 402.207L489.865 403.852V403.905H493.048V404.641H488.728Z" fill="#D0D0DA"/>
<rect x="502.674" y="34.1267" width="40.6801" height="393.07" stroke="#3D3D3D" stroke-width="0.784572"/>
<path d="M513.14 397.793V404.641H512.311V398.663H512.271L510.599 399.773V398.93L512.311 397.793H513.14ZM517.423 404.734C516.982 404.734 516.588 404.658 516.243 404.507C515.9 404.355 515.627 404.145 515.424 403.875C515.223 403.603 515.114 403.288 515.096 402.929H515.939C515.957 403.149 516.032 403.34 516.166 403.501C516.3 403.659 516.475 403.781 516.691 403.868C516.907 403.955 517.147 403.999 517.41 403.999C517.704 403.999 517.965 403.947 518.192 403.845C518.419 403.742 518.598 403.6 518.727 403.417C518.856 403.234 518.921 403.022 518.921 402.782C518.921 402.53 518.859 402.308 518.734 402.116C518.609 401.922 518.426 401.771 518.185 401.662C517.945 401.552 517.65 401.498 517.303 401.498H516.754V400.762H517.303C517.575 400.762 517.813 400.713 518.018 400.615C518.226 400.517 518.387 400.379 518.503 400.201C518.621 400.022 518.68 399.813 518.68 399.572C518.68 399.34 518.629 399.139 518.526 398.967C518.424 398.795 518.279 398.662 518.092 398.566C517.907 398.47 517.688 398.422 517.436 398.422C517.2 398.422 516.977 398.465 516.768 398.552C516.561 398.637 516.391 398.761 516.26 398.924C516.128 399.084 516.057 399.278 516.046 399.505H515.243C515.257 399.146 515.365 398.832 515.568 398.562C515.77 398.29 516.036 398.079 516.363 397.927C516.693 397.776 517.055 397.7 517.45 397.7C517.873 397.7 518.237 397.786 518.54 397.957C518.843 398.127 519.076 398.351 519.239 398.629C519.401 398.908 519.483 399.209 519.483 399.532C519.483 399.918 519.381 400.246 519.178 400.518C518.978 400.79 518.705 400.979 518.359 401.083V401.137C518.792 401.208 519.129 401.392 519.372 401.688C519.615 401.983 519.737 402.347 519.737 402.782C519.737 403.154 519.635 403.488 519.432 403.785C519.232 404.079 518.958 404.311 518.61 404.48C518.262 404.65 517.867 404.734 517.423 404.734ZM523.538 397.472L521.331 405.67H520.609L522.816 397.472H523.538ZM526.693 404.734C526.19 404.734 525.761 404.597 525.406 404.323C525.052 404.047 524.781 403.647 524.594 403.123C524.407 402.597 524.313 401.961 524.313 401.217C524.313 400.477 524.407 399.845 524.594 399.321C524.783 398.795 525.055 398.394 525.41 398.118C525.766 397.839 526.194 397.7 526.693 397.7C527.193 397.7 527.619 397.839 527.974 398.118C528.331 398.394 528.602 398.795 528.79 399.321C528.979 399.845 529.074 400.477 529.074 401.217C529.074 401.961 528.98 402.597 528.793 403.123C528.606 403.647 528.335 404.047 527.981 404.323C527.626 404.597 527.197 404.734 526.693 404.734ZM526.693 403.999C527.193 403.999 527.58 403.758 527.857 403.277C528.133 402.795 528.271 402.109 528.271 401.217C528.271 400.624 528.208 400.119 528.081 399.703C527.956 399.286 527.776 398.968 527.539 398.75C527.305 398.531 527.023 398.422 526.693 398.422C526.199 398.422 525.812 398.666 525.533 399.154C525.255 399.64 525.115 400.328 525.115 401.217C525.115 401.81 525.178 402.314 525.303 402.728C525.427 403.143 525.607 403.458 525.841 403.674C526.077 403.891 526.361 403.999 526.693 403.999ZM530.344 404.641V404.039L532.604 401.565C532.87 401.275 533.088 401.023 533.26 400.809C533.431 400.593 533.558 400.39 533.641 400.201C533.726 400.009 533.768 399.808 533.768 399.599C533.768 399.358 533.71 399.15 533.594 398.974C533.48 398.798 533.324 398.662 533.126 398.566C532.928 398.47 532.705 398.422 532.457 398.422C532.194 398.422 531.965 398.477 531.769 398.586C531.575 398.693 531.424 398.843 531.317 399.037C531.212 399.231 531.16 399.458 531.16 399.719H530.371C530.371 399.318 530.464 398.966 530.649 398.663C530.834 398.36 531.085 398.123 531.404 397.954C531.725 397.785 532.085 397.7 532.484 397.7C532.885 397.7 533.241 397.785 533.551 397.954C533.86 398.123 534.103 398.352 534.279 398.639C534.456 398.927 534.544 399.247 534.544 399.599C534.544 399.851 534.498 400.097 534.406 400.338C534.317 400.576 534.161 400.843 533.938 401.137C533.718 401.429 533.411 401.785 533.019 402.207L531.481 403.852V403.905H534.664V404.641H530.344Z" fill="#15FFAB"/>
<rect x="544.134" y="34.1267" width="40.6801" height="393.07" stroke="#3D3D3D" stroke-width="0.784572"/>
<path opacity="0.6" d="M554.578 397.793V404.641H553.749V398.663H553.709L552.037 399.773V398.93L553.749 397.793H554.578ZM556.387 403.236V402.554L559.396 397.793H559.891V398.85H559.556L557.283 402.447V402.501H561.335V403.236H556.387ZM559.61 404.641V403.029V402.712V397.793H560.399V404.641H559.61ZM565.022 397.472L562.815 405.67H562.093L564.3 397.472H565.022ZM568.177 404.734C567.674 404.734 567.245 404.597 566.89 404.323C566.536 404.047 566.265 403.647 566.078 403.123C565.89 402.597 565.797 401.961 565.797 401.217C565.797 400.477 565.89 399.845 566.078 399.321C566.267 398.795 566.539 398.394 566.893 398.118C567.25 397.839 567.678 397.7 568.177 397.7C568.677 397.7 569.103 397.839 569.458 398.118C569.814 398.394 570.086 398.795 570.274 399.321C570.463 399.845 570.558 400.477 570.558 401.217C570.558 401.961 570.464 402.597 570.277 403.123C570.09 403.647 569.819 404.047 569.464 404.323C569.11 404.597 568.681 404.734 568.177 404.734ZM568.177 403.999C568.677 403.999 569.064 403.758 569.341 403.277C569.617 402.795 569.755 402.109 569.755 401.217C569.755 400.624 569.692 400.119 569.565 399.703C569.44 399.286 569.259 398.968 569.023 398.75C568.789 398.531 568.507 398.422 568.177 398.422C567.682 398.422 567.296 398.666 567.017 399.154C566.739 399.64 566.599 400.328 566.599 401.217C566.599 401.81 566.662 402.314 566.786 402.728C566.911 403.143 567.091 403.458 567.325 403.674C567.561 403.891 567.845 403.999 568.177 403.999ZM571.828 404.641V404.039L574.088 401.565C574.354 401.275 574.572 401.023 574.744 400.809C574.915 400.593 575.042 400.39 575.125 400.201C575.209 400.009 575.252 399.808 575.252 399.599C575.252 399.358 575.194 399.15 575.078 398.974C574.964 398.798 574.808 398.662 574.61 398.566C574.412 398.47 574.189 398.422 573.941 398.422C573.678 398.422 573.449 398.477 573.252 398.586C573.059 398.693 572.908 398.843 572.801 399.037C572.696 399.231 572.644 399.458 572.644 399.719H571.855C571.855 399.318 571.947 398.966 572.132 398.663C572.317 398.36 572.569 398.123 572.888 397.954C573.209 397.785 573.569 397.7 573.968 397.7C574.369 397.7 574.725 397.785 575.034 397.954C575.344 398.123 575.587 398.352 575.763 398.639C575.939 398.927 576.027 399.247 576.027 399.599C576.027 399.851 575.982 400.097 575.89 400.338C575.801 400.576 575.645 400.843 575.422 401.137C575.202 401.429 574.895 401.785 574.503 402.207L572.965 403.852V403.905H576.148V404.641H571.828Z" fill="#D0D0DA"/>
<rect x="585.603" y="34.1267" width="40.6801" height="393.07" stroke="#3D3D3D" stroke-width="0.784572"/>
<path opacity="0.6" d="M596.203 397.793V404.641H595.374V398.663H595.334L593.662 399.773V398.93L595.374 397.793H596.203ZM600.312 404.734C599.92 404.734 599.567 404.656 599.252 404.5C598.938 404.344 598.686 404.13 598.497 403.858C598.307 403.586 598.204 403.277 598.186 402.929H598.988C599.02 403.239 599.16 403.495 599.41 403.698C599.661 403.898 599.962 403.999 600.312 403.999C600.593 403.999 600.843 403.933 601.061 403.801C601.282 403.67 601.455 403.489 601.579 403.26C601.706 403.028 601.77 402.766 601.77 402.474C601.77 402.175 601.704 401.909 601.573 401.675C601.443 401.439 601.265 401.253 601.038 401.117C600.81 400.981 600.551 400.912 600.259 400.909C600.049 400.907 599.834 400.94 599.614 401.006C599.393 401.071 599.211 401.155 599.069 401.257L598.293 401.164L598.707 397.793H602.265V398.529H599.403L599.162 400.548H599.202C599.343 400.437 599.519 400.344 599.731 400.271C599.942 400.197 600.163 400.161 600.393 400.161C600.812 400.161 601.185 400.261 601.513 400.461C601.842 400.66 602.101 400.932 602.288 401.277C602.478 401.623 602.572 402.017 602.572 402.461C602.572 402.898 602.474 403.288 602.278 403.631C602.084 403.972 601.817 404.242 601.476 404.44C601.135 404.636 600.747 404.734 600.312 404.734ZM606.334 397.472L604.128 405.67H603.406L605.612 397.472H606.334ZM609.49 404.734C608.986 404.734 608.557 404.597 608.203 404.323C607.848 404.047 607.577 403.647 607.39 403.123C607.203 402.597 607.109 401.961 607.109 401.217C607.109 400.477 607.203 399.845 607.39 399.321C607.58 398.795 607.852 398.394 608.206 398.118C608.563 397.839 608.99 397.7 609.49 397.7C609.989 397.7 610.416 397.839 610.77 398.118C611.127 398.394 611.399 398.795 611.586 399.321C611.775 399.845 611.87 400.477 611.87 401.217C611.87 401.961 611.777 402.597 611.589 403.123C611.402 403.647 611.131 404.047 610.777 404.323C610.423 404.597 609.993 404.734 609.49 404.734ZM609.49 403.999C609.989 403.999 610.377 403.758 610.653 403.277C610.93 402.795 611.068 402.109 611.068 401.217C611.068 400.624 611.004 400.119 610.877 399.703C610.752 399.286 610.572 398.968 610.336 398.75C610.102 398.531 609.82 398.422 609.49 398.422C608.995 398.422 608.608 398.666 608.33 399.154C608.051 399.64 607.912 400.328 607.912 401.217C607.912 401.81 607.974 402.314 608.099 402.728C608.224 403.143 608.403 403.458 608.637 403.674C608.873 403.891 609.158 403.999 609.49 403.999ZM613.141 404.641V404.039L615.401 401.565C615.666 401.275 615.884 401.023 616.056 400.809C616.228 400.593 616.355 400.39 616.437 400.201C616.522 400.009 616.564 399.808 616.564 399.599C616.564 399.358 616.506 399.15 616.39 398.974C616.277 398.798 616.121 398.662 615.922 398.566C615.724 398.47 615.501 398.422 615.254 398.422C614.991 398.422 614.761 398.477 614.565 398.586C614.371 398.693 614.221 398.843 614.114 399.037C614.009 399.231 613.956 399.458 613.956 399.719H613.167C613.167 399.318 613.26 398.966 613.445 398.663C613.63 398.36 613.882 398.123 614.201 397.954C614.521 397.785 614.881 397.7 615.28 397.7C615.682 397.7 616.037 397.785 616.347 397.954C616.657 398.123 616.9 398.352 617.076 398.639C617.252 398.927 617.34 399.247 617.34 399.599C617.34 399.851 617.294 400.097 617.203 400.338C617.114 400.576 616.958 400.843 616.735 401.137C616.514 401.429 616.208 401.785 615.815 402.207L614.277 403.852V403.905H617.46V404.641H613.141Z" fill="#D0D0DA"/>
<rect x="627.064" y="34.1267" width="40.6801" height="393.07" stroke="#3D3D3D" stroke-width="0.784572"/>
<path opacity="0.6" d="M637.591 397.793V404.641H636.762V398.663H636.721L635.05 399.773V398.93L636.762 397.793H637.591ZM641.833 404.734C641.553 404.73 641.272 404.676 640.991 404.574C640.71 404.471 640.454 404.298 640.222 404.056C639.99 403.81 639.804 403.479 639.664 403.063C639.523 402.644 639.453 402.118 639.453 401.485C639.453 400.878 639.51 400.341 639.623 399.873C639.737 399.403 639.902 399.007 640.118 398.686C640.334 398.363 640.595 398.118 640.901 397.951C641.208 397.783 641.555 397.7 641.94 397.7C642.324 397.7 642.665 397.777 642.963 397.931C643.264 398.082 643.51 398.294 643.699 398.566C643.888 398.838 644.011 399.151 644.067 399.505H643.251C643.175 399.198 643.028 398.942 642.81 398.74C642.591 398.537 642.301 398.435 641.94 398.435C641.41 398.435 640.992 398.666 640.687 399.127C640.383 399.589 640.231 400.236 640.229 401.07H640.282C640.407 400.88 640.555 400.719 640.727 400.585C640.901 400.449 641.092 400.344 641.302 400.271C641.511 400.197 641.733 400.161 641.967 400.161C642.359 400.161 642.718 400.259 643.044 400.455C643.369 400.649 643.63 400.917 643.826 401.261C644.022 401.602 644.12 401.993 644.12 402.434C644.12 402.858 644.026 403.245 643.836 403.598C643.647 403.947 643.38 404.226 643.037 404.433C642.696 404.638 642.295 404.739 641.833 404.734ZM641.833 403.999C642.114 403.999 642.366 403.928 642.589 403.788C642.814 403.648 642.991 403.459 643.121 403.223C643.252 402.987 643.318 402.724 643.318 402.434C643.318 402.151 643.254 401.894 643.127 401.662C643.002 401.428 642.83 401.242 642.609 401.103C642.391 400.965 642.141 400.896 641.86 400.896C641.648 400.896 641.451 400.938 641.268 401.023C641.086 401.106 640.925 401.219 640.787 401.364C640.651 401.509 640.544 401.675 640.466 401.862C640.388 402.047 640.349 402.242 640.349 402.447C640.349 402.719 640.412 402.973 640.54 403.21C640.669 403.446 640.845 403.637 641.068 403.781C641.293 403.926 641.548 403.999 641.833 403.999ZM647.869 397.472L645.662 405.67H644.94L647.147 397.472H647.869ZM651.024 404.734C650.521 404.734 650.091 404.597 649.737 404.323C649.383 404.047 649.112 403.647 648.925 403.123C648.737 402.597 648.644 401.961 648.644 401.217C648.644 400.477 648.737 399.845 648.925 399.321C649.114 398.795 649.386 398.394 649.74 398.118C650.097 397.839 650.525 397.7 651.024 397.7C651.524 397.7 651.95 397.839 652.305 398.118C652.661 398.394 652.933 398.795 653.121 399.321C653.31 399.845 653.405 400.477 653.405 401.217C653.405 401.961 653.311 402.597 653.124 403.123C652.937 403.647 652.666 404.047 652.311 404.323C651.957 404.597 651.528 404.734 651.024 404.734ZM651.024 403.999C651.524 403.999 651.911 403.758 652.188 403.277C652.464 402.795 652.602 402.109 652.602 401.217C652.602 400.624 652.539 400.119 652.412 399.703C652.287 399.286 652.106 398.968 651.87 398.75C651.636 398.531 651.354 398.422 651.024 398.422C650.529 398.422 650.143 398.666 649.864 399.154C649.585 399.64 649.446 400.328 649.446 401.217C649.446 401.81 649.509 402.314 649.633 402.728C649.758 403.143 649.938 403.458 650.172 403.674C650.408 403.891 650.692 403.999 651.024 403.999ZM654.675 404.641V404.039L656.935 401.565C657.201 401.275 657.419 401.023 657.591 400.809C657.762 400.593 657.889 400.39 657.972 400.201C658.056 400.009 658.099 399.808 658.099 399.599C658.099 399.358 658.041 399.15 657.925 398.974C657.811 398.798 657.655 398.662 657.457 398.566C657.258 398.47 657.036 398.422 656.788 398.422C656.525 398.422 656.296 398.477 656.099 398.586C655.906 398.693 655.755 398.843 655.648 399.037C655.543 399.231 655.491 399.458 655.491 399.719H654.702C654.702 399.318 654.794 398.966 654.979 398.663C655.164 398.36 655.416 398.123 655.735 397.954C656.056 397.785 656.416 397.7 656.815 397.7C657.216 397.7 657.572 397.785 657.881 397.954C658.191 398.123 658.434 398.352 658.61 398.639C658.786 398.927 658.874 399.247 658.874 399.599C658.874 399.851 658.829 400.097 658.737 400.338C658.648 400.576 658.492 400.843 658.269 401.137C658.049 401.429 657.742 401.785 657.35 402.207L655.812 403.852V403.905H658.995V404.641H654.675Z" fill="#D0D0DA"/>
<rect x="668.533" y="34.1267" width="40.6801" height="393.07" stroke="#3D3D3D" stroke-width="0.784572"/>
<path opacity="0.6" d="M679.308 397.793V404.641H678.479V398.663H678.438L676.767 399.773V398.93L678.479 397.793H679.308ZM681.491 404.641L684.553 398.582V398.529H681.023V397.793H685.409V398.569L682.36 404.641H681.491ZM689.089 397.472L686.883 405.67H686.161L688.367 397.472H689.089ZM692.245 404.734C691.741 404.734 691.312 404.597 690.958 404.323C690.603 404.047 690.332 403.647 690.145 403.123C689.958 402.597 689.864 401.961 689.864 401.217C689.864 400.477 689.958 399.845 690.145 399.321C690.335 398.795 690.607 398.394 690.961 398.118C691.318 397.839 691.745 397.7 692.245 397.7C692.744 397.7 693.171 397.839 693.525 398.118C693.882 398.394 694.154 398.795 694.341 399.321C694.53 399.845 694.625 400.477 694.625 401.217C694.625 401.961 694.532 402.597 694.344 403.123C694.157 403.647 693.886 404.047 693.532 404.323C693.178 404.597 692.748 404.734 692.245 404.734ZM692.245 403.999C692.744 403.999 693.132 403.758 693.408 403.277C693.685 402.795 693.823 402.109 693.823 401.217C693.823 400.624 693.759 400.119 693.632 399.703C693.507 399.286 693.327 398.968 693.091 398.75C692.857 398.531 692.575 398.422 692.245 398.422C691.75 398.422 691.363 398.666 691.085 399.154C690.806 399.64 690.667 400.328 690.667 401.217C690.667 401.81 690.729 402.314 690.854 402.728C690.979 403.143 691.158 403.458 691.392 403.674C691.628 403.891 691.913 403.999 692.245 403.999ZM695.896 404.641V404.039L698.156 401.565C698.421 401.275 698.639 401.023 698.811 400.809C698.983 400.593 699.11 400.39 699.192 400.201C699.277 400.009 699.319 399.808 699.319 399.599C699.319 399.358 699.261 399.15 699.145 398.974C699.032 398.798 698.876 398.662 698.677 398.566C698.479 398.47 698.256 398.422 698.009 398.422C697.746 398.422 697.516 398.477 697.32 398.586C697.126 398.693 696.976 398.843 696.869 399.037C696.764 399.231 696.711 399.458 696.711 399.719H695.922C695.922 399.318 696.015 398.966 696.2 398.663C696.385 398.36 696.637 398.123 696.956 397.954C697.276 397.785 697.636 397.7 698.035 397.7C698.437 397.7 698.792 397.785 699.102 397.954C699.412 398.123 699.655 398.352 699.831 398.639C700.007 398.927 700.095 399.247 700.095 399.599C700.095 399.851 700.049 400.097 699.958 400.338C699.869 400.576 699.713 400.843 699.49 401.137C699.269 401.429 698.963 401.785 698.57 402.207L697.032 403.852V403.905H700.215V404.641H695.896Z" fill="#D0D0DA"/>
<rect x="709.994" y="34.1267" width="40.6801" height="393.07" stroke="#3D3D3D" stroke-width="0.784572"/>
<path opacity="0.6" d="M720.557 397.793V404.641H719.728V398.663H719.688L718.016 399.773V398.93L719.728 397.793H720.557ZM724.72 404.734C724.26 404.734 723.855 404.653 723.503 404.49C723.153 404.325 722.88 404.099 722.684 403.811C722.487 403.522 722.39 403.192 722.393 402.822C722.39 402.532 722.447 402.265 722.563 402.019C722.679 401.772 722.837 401.566 723.038 401.401C723.241 401.234 723.467 401.128 723.717 401.083V401.043C723.389 400.958 723.128 400.775 722.934 400.492C722.74 400.206 722.645 399.882 722.647 399.519C722.645 399.171 722.733 398.86 722.911 398.586C723.089 398.312 723.334 398.095 723.646 397.937C723.961 397.779 724.318 397.7 724.72 397.7C725.116 397.7 725.471 397.779 725.783 397.937C726.095 398.095 726.34 398.312 726.518 398.586C726.699 398.86 726.79 399.171 726.792 399.519C726.79 399.882 726.691 400.206 726.495 400.492C726.301 400.775 726.044 400.958 725.723 401.043V401.083C725.97 401.128 726.193 401.234 726.391 401.401C726.59 401.566 726.748 401.772 726.866 402.019C726.984 402.265 727.044 402.532 727.047 402.822C727.044 403.192 726.944 403.522 726.746 403.811C726.55 404.099 726.276 404.325 725.927 404.49C725.579 404.653 725.177 404.734 724.72 404.734ZM724.72 403.999C725.029 403.999 725.297 403.949 725.522 403.848C725.747 403.748 725.921 403.606 726.044 403.424C726.166 403.241 726.229 403.027 726.231 402.782C726.229 402.523 726.162 402.295 726.03 402.096C725.899 401.898 725.719 401.742 725.492 401.628C725.267 401.515 725.009 401.458 724.72 401.458C724.428 401.458 724.167 401.515 723.937 401.628C723.71 401.742 723.53 401.898 723.399 402.096C723.27 402.295 723.206 402.523 723.208 402.782C723.206 403.027 723.265 403.241 723.386 403.424C723.508 403.606 723.683 403.748 723.911 403.848C724.138 403.949 724.408 403.999 724.72 403.999ZM724.72 400.749C724.965 400.749 725.182 400.7 725.372 400.602C725.563 400.504 725.714 400.367 725.823 400.191C725.932 400.015 725.988 399.808 725.99 399.572C725.988 399.34 725.933 399.139 725.826 398.967C725.719 398.793 725.571 398.659 725.382 398.566C725.192 398.47 724.971 398.422 724.72 398.422C724.463 398.422 724.239 398.47 724.048 398.566C723.856 398.659 723.708 398.793 723.603 398.967C723.498 399.139 723.447 399.34 723.449 399.572C723.447 399.808 723.499 400.015 723.606 400.191C723.715 400.367 723.866 400.504 724.058 400.602C724.249 400.7 724.47 400.749 724.72 400.749ZM730.762 397.472L728.555 405.67H727.833L730.04 397.472H730.762ZM733.917 404.734C733.413 404.734 732.984 404.597 732.63 404.323C732.276 404.047 732.005 403.647 731.818 403.123C731.63 402.597 731.537 401.961 731.537 401.217C731.537 400.477 731.63 399.845 731.818 399.321C732.007 398.795 732.279 398.394 732.633 398.118C732.99 397.839 733.418 397.7 733.917 397.7C734.416 397.7 734.843 397.839 735.198 398.118C735.554 398.394 735.826 398.795 736.013 399.321C736.203 399.845 736.298 400.477 736.298 401.217C736.298 401.961 736.204 402.597 736.017 403.123C735.83 403.647 735.559 404.047 735.204 404.323C734.85 404.597 734.421 404.734 733.917 404.734ZM733.917 403.999C734.416 403.999 734.804 403.758 735.081 403.277C735.357 402.795 735.495 402.109 735.495 401.217C735.495 400.624 735.432 400.119 735.305 399.703C735.18 399.286 734.999 398.968 734.763 398.75C734.529 398.531 734.247 398.422 733.917 398.422C733.422 398.422 733.036 398.666 732.757 399.154C732.478 399.64 732.339 400.328 732.339 401.217C732.339 401.81 732.402 402.314 732.526 402.728C732.651 403.143 732.831 403.458 733.065 403.674C733.301 403.891 733.585 403.999 733.917 403.999ZM737.568 404.641V404.039L739.828 401.565C740.093 401.275 740.312 401.023 740.483 400.809C740.655 400.593 740.782 400.39 740.865 400.201C740.949 400.009 740.992 399.808 740.992 399.599C740.992 399.358 740.934 399.15 740.818 398.974C740.704 398.798 740.548 398.662 740.35 398.566C740.151 398.47 739.928 398.422 739.681 398.422C739.418 398.422 739.188 398.477 738.992 398.586C738.798 398.693 738.648 398.843 738.541 399.037C738.436 399.231 738.384 399.458 738.384 399.719H737.595C737.595 399.318 737.687 398.966 737.872 398.663C738.057 398.36 738.309 398.123 738.628 397.954C738.949 397.785 739.309 397.7 739.708 397.7C740.109 397.7 740.465 397.785 740.774 397.954C741.084 398.123 741.327 398.352 741.503 398.639C741.679 398.927 741.767 399.247 741.767 399.599C741.767 399.851 741.722 400.097 741.63 400.338C741.541 400.576 741.385 400.843 741.162 401.137C740.942 401.429 740.635 401.785 740.243 402.207L738.705 403.852V403.905H741.888V404.641H737.568Z" fill="#D0D0DA"/>
<rect x="751.455" y="34.1267" width="40.6801" height="393.07" stroke="#3D3D3D" stroke-width="0.784572"/>
<path opacity="0.6" d="M761.981 397.793V404.641H761.152V398.663H761.112L759.44 399.773V398.93L761.152 397.793H761.981ZM766.13 397.7C766.411 397.702 766.692 397.756 766.973 397.86C767.254 397.965 767.51 398.139 767.742 398.382C767.974 398.623 768.16 398.951 768.3 399.368C768.441 399.785 768.511 400.308 768.511 400.936C768.511 401.545 768.453 402.085 768.337 402.558C768.223 403.028 768.058 403.425 767.842 403.748C767.628 404.071 767.367 404.316 767.06 404.483C766.754 404.651 766.409 404.734 766.023 404.734C765.64 404.734 765.298 404.658 764.997 404.507C764.698 404.353 764.453 404.14 764.261 403.868C764.072 403.594 763.951 403.277 763.897 402.915H764.713C764.786 403.23 764.932 403.489 765.151 403.694C765.371 403.897 765.662 403.999 766.023 403.999C766.552 403.999 766.968 403.768 767.274 403.307C767.581 402.845 767.735 402.193 767.735 401.351H767.682C767.557 401.538 767.409 401.7 767.237 401.836C767.065 401.972 766.875 402.076 766.665 402.15C766.456 402.223 766.233 402.26 765.997 402.26C765.604 402.26 765.244 402.163 764.917 401.969C764.591 401.773 764.331 401.505 764.134 401.164C763.941 400.82 763.844 400.428 763.844 399.987C763.844 399.568 763.937 399.184 764.124 398.837C764.314 398.487 764.579 398.208 764.92 398.001C765.263 397.793 765.667 397.693 766.13 397.7ZM766.13 398.435C765.85 398.435 765.597 398.506 765.371 398.646C765.149 398.784 764.971 398.971 764.84 399.208C764.711 399.442 764.646 399.701 764.646 399.987C764.646 400.272 764.708 400.532 764.833 400.766C764.96 400.997 765.133 401.182 765.351 401.321C765.572 401.457 765.823 401.525 766.104 401.525C766.315 401.525 766.513 401.483 766.695 401.401C766.878 401.316 767.038 401.201 767.174 401.057C767.312 400.909 767.42 400.743 767.498 400.558C767.576 400.371 767.615 400.176 767.615 399.973C767.615 399.706 767.55 399.455 767.421 399.221C767.294 398.987 767.118 398.798 766.893 398.653C766.67 398.508 766.416 398.435 766.13 398.435ZM772.26 397.472L770.053 405.67H769.331L771.537 397.472H772.26ZM775.415 404.734C774.911 404.734 774.482 404.597 774.128 404.323C773.773 404.047 773.502 403.647 773.315 403.123C773.128 402.597 773.034 401.961 773.034 401.217C773.034 400.477 773.128 399.845 773.315 399.321C773.505 398.795 773.777 398.394 774.131 398.118C774.488 397.839 774.916 397.7 775.415 397.7C775.914 397.7 776.341 397.839 776.695 398.118C777.052 398.394 777.324 398.795 777.511 399.321C777.701 399.845 777.795 400.477 777.795 401.217C777.795 401.961 777.702 402.597 777.514 403.123C777.327 403.647 777.056 404.047 776.702 404.323C776.348 404.597 775.919 404.734 775.415 404.734ZM775.415 403.999C775.914 403.999 776.302 403.758 776.578 403.277C776.855 402.795 776.993 402.109 776.993 401.217C776.993 400.624 776.929 400.119 776.802 399.703C776.678 399.286 776.497 398.968 776.261 398.75C776.027 398.531 775.745 398.422 775.415 398.422C774.92 398.422 774.533 398.666 774.255 399.154C773.976 399.64 773.837 400.328 773.837 401.217C773.837 401.81 773.899 402.314 774.024 402.728C774.149 403.143 774.328 403.458 774.562 403.674C774.799 403.891 775.083 403.999 775.415 403.999ZM779.066 404.641V404.039L781.326 401.565C781.591 401.275 781.81 401.023 781.981 400.809C782.153 400.593 782.28 400.39 782.362 400.201C782.447 400.009 782.489 399.808 782.489 399.599C782.489 399.358 782.431 399.15 782.316 398.974C782.202 398.798 782.046 398.662 781.847 398.566C781.649 398.47 781.426 398.422 781.179 398.422C780.916 398.422 780.686 398.477 780.49 398.586C780.296 398.693 780.146 398.843 780.039 399.037C779.934 399.231 779.882 399.458 779.882 399.719H779.093C779.093 399.318 779.185 398.966 779.37 398.663C779.555 398.36 779.807 398.123 780.126 397.954C780.447 397.785 780.807 397.7 781.206 397.7C781.607 397.7 781.962 397.785 782.272 397.954C782.582 398.123 782.825 398.352 783.001 398.639C783.177 398.927 783.265 399.247 783.265 399.599C783.265 399.851 783.219 400.097 783.128 400.338C783.039 400.576 782.883 400.843 782.66 401.137C782.439 401.429 782.133 401.785 781.74 402.207L780.203 403.852V403.905H783.385V404.641H779.066Z" fill="#D0D0DA"/>
<rect x="792.924" y="34.1267" width="40.6801" height="393.07" stroke="#3D3D3D" stroke-width="0.784572"/>
<path opacity="0.6" d="M800.376 404.641V404.039L802.636 401.565C802.902 401.275 803.12 401.023 803.292 400.809C803.463 400.593 803.59 400.39 803.673 400.201C803.758 400.009 803.8 399.808 803.8 399.599C803.8 399.358 803.742 399.15 803.626 398.974C803.512 398.798 803.356 398.662 803.158 398.566C802.96 398.47 802.737 398.422 802.489 398.422C802.226 398.422 801.997 398.477 801.801 398.586C801.607 398.693 801.456 398.843 801.349 399.037C801.244 399.231 801.192 399.458 801.192 399.719H800.403C800.403 399.318 800.496 398.966 800.681 398.663C800.866 398.36 801.117 398.123 801.436 397.954C801.757 397.785 802.117 397.7 802.516 397.7C802.917 397.7 803.273 397.785 803.583 397.954C803.892 398.123 804.135 398.352 804.311 398.639C804.487 398.927 804.576 399.247 804.576 399.599C804.576 399.851 804.53 400.097 804.438 400.338C804.349 400.576 804.193 400.843 803.97 401.137C803.75 401.429 803.443 401.785 803.051 402.207L801.513 403.852V403.905H804.696V404.641H800.376ZM808.31 404.734C807.806 404.734 807.377 404.597 807.023 404.323C806.668 404.047 806.398 403.647 806.21 403.123C806.023 402.597 805.93 401.961 805.93 401.217C805.93 400.477 806.023 399.845 806.21 399.321C806.4 398.795 806.672 398.394 807.026 398.118C807.383 397.839 807.811 397.7 808.31 397.7C808.809 397.7 809.236 397.839 809.591 398.118C809.947 398.394 810.219 398.795 810.406 399.321C810.596 399.845 810.69 400.477 810.69 401.217C810.69 401.961 810.597 402.597 810.41 403.123C810.222 403.647 809.952 404.047 809.597 404.323C809.243 404.597 808.814 404.734 808.31 404.734ZM808.31 403.999C808.809 403.999 809.197 403.758 809.474 403.277C809.75 402.795 809.888 402.109 809.888 401.217C809.888 400.624 809.825 400.119 809.698 399.703C809.573 399.286 809.392 398.968 809.156 398.75C808.922 398.531 808.64 398.422 808.31 398.422C807.815 398.422 807.428 398.666 807.15 399.154C806.871 399.64 806.732 400.328 806.732 401.217C806.732 401.81 806.794 402.314 806.919 402.728C807.044 403.143 807.223 403.458 807.457 403.674C807.694 403.891 807.978 403.999 808.31 403.999ZM814.395 397.472L812.188 405.67H811.466L813.673 397.472H814.395ZM817.55 404.734C817.046 404.734 816.617 404.597 816.263 404.323C815.909 404.047 815.638 403.647 815.451 403.123C815.263 402.597 815.17 401.961 815.17 401.217C815.17 400.477 815.263 399.845 815.451 399.321C815.64 398.795 815.912 398.394 816.266 398.118C816.623 397.839 817.051 397.7 817.55 397.7C818.049 397.7 818.476 397.839 818.831 398.118C819.187 398.394 819.459 398.795 819.646 399.321C819.836 399.845 819.931 400.477 819.931 401.217C819.931 401.961 819.837 402.597 819.65 403.123C819.463 403.647 819.192 404.047 818.837 404.323C818.483 404.597 818.054 404.734 817.55 404.734ZM817.55 403.999C818.049 403.999 818.437 403.758 818.714 403.277C818.99 402.795 819.128 402.109 819.128 401.217C819.128 400.624 819.065 400.119 818.938 399.703C818.813 399.286 818.632 398.968 818.396 398.75C818.162 398.531 817.88 398.422 817.55 398.422C817.055 398.422 816.669 398.666 816.39 399.154C816.111 399.64 815.972 400.328 815.972 401.217C815.972 401.81 816.035 402.314 816.159 402.728C816.284 403.143 816.464 403.458 816.698 403.674C816.934 403.891 817.218 403.999 817.55 403.999ZM821.201 404.641V404.039L823.461 401.565C823.726 401.275 823.945 401.023 824.117 400.809C824.288 400.593 824.415 400.39 824.498 400.201C824.582 400.009 824.625 399.808 824.625 399.599C824.625 399.358 824.567 399.15 824.451 398.974C824.337 398.798 824.181 398.662 823.983 398.566C823.784 398.47 823.562 398.422 823.314 398.422C823.051 398.422 822.822 398.477 822.625 398.586C822.431 398.693 822.281 398.843 822.174 399.037C822.069 399.231 822.017 399.458 822.017 399.719H821.228C821.228 399.318 821.32 398.966 821.505 398.663C821.69 398.36 821.942 398.123 822.261 397.954C822.582 397.785 822.942 397.7 823.341 397.7C823.742 397.7 824.098 397.785 824.407 397.954C824.717 398.123 824.96 398.352 825.136 398.639C825.312 398.927 825.4 399.247 825.4 399.599C825.4 399.851 825.355 400.097 825.263 400.338C825.174 400.576 825.018 400.843 824.795 401.137C824.575 401.429 824.268 401.785 823.876 402.207L822.338 403.852V403.905H825.521V404.641H821.201Z" fill="#D0D0DA"/>
<path d="M833.601 377.375H5.09375" stroke="#1E1E24" stroke-width="0.784572"/>
<g clip-path="url(#clip0_938_10697)">
<ellipse opacity="0.7" cx="738.28" cy="211.834" rx="405.623" ry="211.834" fill="url(#paint0_radial_938_10697)" fill-opacity="0.3"/>
<g filter="url(#filter0_ddddddd_938_10697)">
<path d="M6.27344 148.673C44.4647 148.673 39.8355 107.431 85.5493 107.431C131.263 107.431 124.319 198.164 157.303 198.164C190.286 198.164 196.073 148.673 235.421 148.673C274.77 148.673 279.978 73.75 310.646 73.75C341.315 73.75 357.905 148.673 388.186 148.673C414.852 148.673 429.802 111.555 456.468 111.555C485.619 111.555 501.963 148.673 531.114 148.673C560.266 148.673 576.61 203.663 605.761 203.663C635.138 203.663 651.609 229.095 680.986 229.095C709.912 229.095 726.129 148.673 755.054 148.673C784.657 148.673 801.255 103.307 830.858 103.307" stroke="#FD8806" stroke-width="2.35371" stroke-linecap="round"/>
</g>
<path d="M6.27344 186.191C44.4647 186.191 39.8355 213.513 85.5493 213.513C131.263 213.513 124.319 235.37 157.303 235.37C190.286 235.37 193.179 180.727 232.528 180.727C271.876 180.727 279.978 170.482 310.646 170.482C341.315 170.482 357.905 213.513 388.186 213.513C414.852 213.513 429.802 149.307 456.468 149.307C485.619 149.307 501.963 117.888 531.114 117.888C560.266 117.888 576.61 69.3918 605.761 69.3918C635.138 69.3918 651.609 161.602 680.986 161.602C709.912 161.602 726.707 117.888 755.633 117.888C785.236 117.888 801.255 61.1953 830.858 61.1953" stroke="#C5200C" stroke-width="2.35371" stroke-linecap="round"/>
<g filter="url(#filter1_ddddd_938_10697)">
<path d="M6.27344 235.429C44.4457 235.429 39.8187 252.398 85.5097 252.398C131.201 252.398 124.26 265.973 157.227 265.973C190.194 265.973 193.086 232.036 232.415 232.036C271.744 232.036 279.841 225.672 310.495 225.672C341.148 225.672 357.73 252.398 387.996 252.398C414.648 252.398 429.591 212.522 456.243 212.522C485.38 212.522 501.716 193.008 530.852 193.008C559.989 193.008 575.009 252.398 604.146 252.398C633.509 252.398 651.287 220.158 680.649 220.158C709.56 220.158 726.348 193.008 755.259 193.008C784.847 193.008 799.7 235.429 829.289 235.429" stroke="#FF8743" stroke-width="2.35371" stroke-linecap="round"/>
</g>
<g filter="url(#filter2_dddddd_938_10697)">
<path d="M6.27344 290.787C44.4457 290.787 39.8187 294.436 85.5097 294.436C131.201 294.436 124.26 297.355 157.227 297.355C190.194 297.355 193.086 290.057 232.415 290.057C271.744 290.057 279.841 288.689 310.495 288.689C341.148 288.689 357.73 294.436 387.996 294.436C414.648 294.436 429.591 285.861 456.243 285.861C485.38 285.861 501.716 281.664 530.852 281.664C559.989 281.664 575.009 294.436 604.146 294.436C633.509 294.436 651.287 287.503 680.649 287.503C709.56 287.503 726.348 281.664 755.259 281.664C784.847 281.664 799.7 290.787 829.289 290.787" stroke="#DB3031" stroke-width="2.35371" stroke-linecap="round"/>
</g>
</g>
<defs>
<filter id="filter0_ddddddd_938_10697" x="-91.4085" y="72.5703" width="1019.94" height="437.795" filterUnits="userSpaceOnUse" color-interpolation-filters="sRGB">
<feFlood flood-opacity="0" result="BackgroundImageFix"/>
<feColorMatrix in="SourceAlpha" type="matrix" values="0 0 0 0 0 0 0 0 0 0 0 0 0 0 0 0 0 0 127 0" result="hardAlpha"/>
<feOffset dy="4.25418"/>
<feGaussianBlur stdDeviation="1.11809"/>
<feColorMatrix type="matrix" values="0 0 0 0 0.992157 0 0 0 0 0.533333 0 0 0 0 0.0235294 0 0 0 0.258325 0"/>
<feBlend mode="normal" in2="BackgroundImageFix" result="effect1_dropShadow_938_10697"/>
<feColorMatrix in="SourceAlpha" type="matrix" values="0 0 0 0 0 0 0 0 0 0 0 0 0 0 0 0 0 0 127 0" result="hardAlpha"/>
<feOffset dy="9.8913"/>
<feGaussianBlur stdDeviation="2.59964"/>
<feColorMatrix type="matrix" values="0 0 0 0 0.992157 0 0 0 0 0.533333 0 0 0 0 0.0235294 0 0 0 0.373219 0"/>
<feBlend mode="normal" in2="effect1_dropShadow_938_10697" result="effect2_dropShadow_938_10697"/>
<feColorMatrix in="SourceAlpha" type="matrix" values="0 0 0 0 0 0 0 0 0 0 0 0 0 0 0 0 0 0 127 0" result="hardAlpha"/>
<feOffset dy="17.7625"/>
<feGaussianBlur stdDeviation="4.66834"/>
<feColorMatrix type="matrix" values="0 0 0 0 0.992157 0 0 0 0 0.533333 0 0 0 0 0.0235294 0 0 0 0.460052 0"/>
<feBlend mode="normal" in2="effect2_dropShadow_938_10697" result="effect3_dropShadow_938_10697"/>
<feColorMatrix in="SourceAlpha" type="matrix" values="0 0 0 0 0 0 0 0 0 0 0 0 0 0 0 0 0 0 127 0" result="hardAlpha"/>
<feOffset dy="29.4791"/>
<feGaussianBlur stdDeviation="7.74772"/>
<feColorMatrix type="matrix" values="0 0 0 0 0.992157 0 0 0 0 0.533333 0 0 0 0 0.0235294 0 0 0 0.539948 0"/>
<feBlend mode="normal" in2="effect3_dropShadow_938_10697" result="effect4_dropShadow_938_10697"/>
<feColorMatrix in="SourceAlpha" type="matrix" values="0 0 0 0 0 0 0 0 0 0 0 0 0 0 0 0 0 0 127 0" result="hardAlpha"/>
<feOffset dy="48.5659"/>
<feGaussianBlur stdDeviation="12.7641"/>
<feColorMatrix type="matrix" values="0 0 0 0 0.992157 0 0 0 0 0.533333 0 0 0 0 0.0235294 0 0 0 0.626781 0"/>
<feBlend mode="normal" in2="effect4_dropShadow_938_10697" result="effect5_dropShadow_938_10697"/>
<feColorMatrix in="SourceAlpha" type="matrix" values="0 0 0 0 0 0 0 0 0 0 0 0 0 0 0 0 0 0 127 0" result="hardAlpha"/>
<feOffset dy="84.8791"/>
<feGaussianBlur stdDeviation="22.308"/>
<feColorMatrix type="matrix" values="0 0 0 0 0.992157 0 0 0 0 0.533333 0 0 0 0 0.0235294 0 0 0 0.741675 0"/>
<feBlend mode="normal" in2="effect5_dropShadow_938_10697" result="effect6_dropShadow_938_10697"/>
<feColorMatrix in="SourceAlpha" type="matrix" values="0 0 0 0 0 0 0 0 0 0 0 0 0 0 0 0 0 0 127 0" result="hardAlpha"/>
<feOffset dy="183.59"/>
<feGaussianBlur stdDeviation="48.2511"/>
<feColorMatrix type="matrix" values="0 0 0 0 0.992157 0 0 0 0 0.533333 0 0 0 0 0.0235294 0 0 0 1 0"/>
<feBlend mode="normal" in2="effect6_dropShadow_938_10697" result="effect7_dropShadow_938_10697"/>
<feBlend mode="normal" in="SourceGraphic" in2="effect7_dropShadow_938_10697" result="shape"/>
</filter>
<filter id="filter1_ddddd_938_10697" x="-52.9645" y="191.044" width="941.492" height="191.437" filterUnits="userSpaceOnUse" color-interpolation-filters="sRGB">
<feFlood flood-opacity="0" result="BackgroundImageFix"/>
<feColorMatrix in="SourceAlpha" type="matrix" values="0 0 0 0 0 0 0 0 0 0 0 0 0 0 0 0 0 0 127 0" result="hardAlpha"/>
<feOffset dy="1.96729"/>
<feGaussianBlur stdDeviation="0.99712"/>
<feColorMatrix type="matrix" values="0 0 0 0 1 0 0 0 0 0.635294 0 0 0 0 0 0 0 0 0.195312 0"/>
<feBlend mode="normal" in2="BackgroundImageFix" result="effect1_dropShadow_938_10697"/>
<feColorMatrix in="SourceAlpha" type="matrix" values="0 0 0 0 0 0 0 0 0 0 0 0 0 0 0 0 0 0 127 0" result="hardAlpha"/>
<feOffset dy="4.97543"/>
<feGaussianBlur stdDeviation="2.52179"/>
<feColorMatrix type="matrix" values="0 0 0 0 1 0 0 0 0 0.635294 0 0 0 0 0 0 0 0 0.279537 0"/>
<feBlend mode="normal" in2="effect1_dropShadow_938_10697" result="effect2_dropShadow_938_10697"/>
<feColorMatrix in="SourceAlpha" type="matrix" values="0 0 0 0 0 0 0 0 0 0 0 0 0 0 0 0 0 0 127 0" result="hardAlpha"/>
<feOffset dy="10.1494"/>
<feGaussianBlur stdDeviation="5.14422"/>
<feColorMatrix type="matrix" values="0 0 0 0 1 0 0 0 0 0.635294 0 0 0 0 0 0 0 0 0.350463 0"/>
<feBlend mode="normal" in2="effect2_dropShadow_938_10697" result="effect3_dropShadow_938_10697"/>
<feColorMatrix in="SourceAlpha" type="matrix" values="0 0 0 0 0 0 0 0 0 0 0 0 0 0 0 0 0 0 127 0" result="hardAlpha"/>
<feOffset dy="20.9059"/>
<feGaussianBlur stdDeviation="10.5961"/>
<feColorMatrix type="matrix" values="0 0 0 0 1 0 0 0 0 0.635294 0 0 0 0 0 0 0 0 0.434688 0"/>
<feBlend mode="normal" in2="effect3_dropShadow_938_10697" result="effect4_dropShadow_938_10697"/>
<feColorMatrix in="SourceAlpha" type="matrix" values="0 0 0 0 0 0 0 0 0 0 0 0 0 0 0 0 0 0 127 0" result="hardAlpha"/>
<feOffset dy="57.2737"/>
<feGaussianBlur stdDeviation="29.0291"/>
<feColorMatrix type="matrix" values="0 0 0 0 1 0 0 0 0 0.635294 0 0 0 0 0 0 0 0 0.63 0"/>
<feBlend mode="normal" in2="effect4_dropShadow_938_10697" result="effect5_dropShadow_938_10697"/>
<feBlend mode="normal" in="SourceGraphic" in2="effect5_dropShadow_938_10697" result="shape"/>
</filter>
<filter id="filter2_dddddd_938_10697" x="-57.672" y="280.484" width="950.906" height="159.27" filterUnits="userSpaceOnUse" color-interpolation-filters="sRGB">
<feFlood flood-opacity="0" result="BackgroundImageFix"/>
<feColorMatrix in="SourceAlpha" type="matrix" values="0 0 0 0 0 0 0 0 0 0 0 0 0 0 0 0 0 0 127 0" result="hardAlpha"/>
<feOffset dy="2.17111"/>
<feGaussianBlur stdDeviation="0.868444"/>
<feColorMatrix type="matrix" values="0 0 0 0 1 0 0 0 0 0.0745098 0 0 0 0 0.368627 0 0 0 0.0955895 0"/>
<feBlend mode="normal" in2="BackgroundImageFix" result="effect1_dropShadow_938_10697"/>
<feColorMatrix in="SourceAlpha" type="matrix" values="0 0 0 0 0 0 0 0 0 0 0 0 0 0 0 0 0 0 127 0" result="hardAlpha"/>
<feOffset dy="5.21748"/>
<feGaussianBlur stdDeviation="2.08699"/>
<feColorMatrix type="matrix" values="0 0 0 0 1 0 0 0 0 0.0745098 0 0 0 0 0.368627 0 0 0 0.137324 0"/>
<feBlend mode="normal" in2="effect1_dropShadow_938_10697" result="effect2_dropShadow_938_10697"/>
<feColorMatrix in="SourceAlpha" type="matrix" values="0 0 0 0 0 0 0 0 0 0 0 0 0 0 0 0 0 0 127 0" result="hardAlpha"/>
<feOffset dy="9.82405"/>
<feGaussianBlur stdDeviation="3.92962"/>
<feColorMatrix type="matrix" values="0 0 0 0 1 0 0 0 0 0.0745098 0 0 0 0 0.368627 0 0 0 0.17 0"/>
<feBlend mode="normal" in2="effect2_dropShadow_938_10697" result="effect3_dropShadow_938_10697"/>
<feColorMatrix in="SourceAlpha" type="matrix" values="0 0 0 0 0 0 0 0 0 0 0 0 0 0 0 0 0 0 127 0" result="hardAlpha"/>
<feOffset dy="17.5244"/>
<feGaussianBlur stdDeviation="7.00977"/>
<feColorMatrix type="matrix" values="0 0 0 0 1 0 0 0 0 0.0745098 0 0 0 0 0.368627 0 0 0 0.202676 0"/>
<feBlend mode="normal" in2="effect3_dropShadow_938_10697" result="effect4_dropShadow_938_10697"/>
<feColorMatrix in="SourceAlpha" type="matrix" values="0 0 0 0 0 0 0 0 0 0 0 0 0 0 0 0 0 0 127 0" result="hardAlpha"/>
<feOffset dy="32.7775"/>
<feGaussianBlur stdDeviation="13.111"/>
<feColorMatrix type="matrix" values="0 0 0 0 1 0 0 0 0 0.0745098 0 0 0 0 0.368627 0 0 0 0.24441 0"/>
<feBlend mode="normal" in2="effect4_dropShadow_938_10697" result="effect5_dropShadow_938_10697"/>
<feColorMatrix in="SourceAlpha" type="matrix" values="0 0 0 0 0 0 0 0 0 0 0 0 0 0 0 0 0 0 127 0" result="hardAlpha"/>
<feOffset dy="78.4572"/>
<feGaussianBlur stdDeviation="31.3829"/>
<feColorMatrix type="matrix" values="0 0 0 0 1 0 0 0 0 0.0745098 0 0 0 0 0.368627 0 0 0 0.34 0"/>
<feBlend mode="normal" in2="effect5_dropShadow_938_10697" result="effect6_dropShadow_938_10697"/>
<feBlend mode="normal" in="SourceGraphic" in2="effect6_dropShadow_938_10697" result="shape"/>
</filter>
<radialGradient id="paint0_radial_938_10697" cx="0" cy="0" r="1" gradientUnits="userSpaceOnUse" gradientTransform="translate(738.28 211.834) rotate(90) scale(211.834 405.623)">
<stop stop-color="#D71E1E"/>
<stop offset="1" stop-color="#D13F3F" stop-opacity="0"/>
</radialGradient>
<clipPath id="clip0_938_10697">
<rect width="832.43" height="428.376" fill="white"/>
</clipPath>
</defs>
</svg>
