<svg width="20" height="20" viewBox="0 0 20 20" fill="none" xmlns="http://www.w3.org/2000/svg">
<path fill-rule="evenodd" clip-rule="evenodd" d="M9.7838 1.66797C14.2588 1.66797 17.8988 5.30797 17.8988 9.78297C17.8988 11.8943 17.0886 13.8199 15.7627 15.265L18.3716 17.8686C18.6158 18.1127 18.6166 18.5077 18.3725 18.7519C18.2508 18.8752 18.09 18.9361 17.93 18.9361C17.7708 18.9361 17.6108 18.8752 17.4883 18.7536L14.8479 16.1205C13.4589 17.2328 11.6977 17.8988 9.7838 17.8988C5.3088 17.8988 1.66797 14.258 1.66797 9.78297C1.66797 5.30797 5.3088 1.66797 9.7838 1.66797ZM9.7838 2.91797C5.99797 2.91797 2.91797 5.99714 2.91797 9.78297C2.91797 13.5688 5.99797 16.6488 9.7838 16.6488C13.5688 16.6488 16.6488 13.5688 16.6488 9.78297C16.6488 5.99714 13.5688 2.91797 9.7838 2.91797Z" fill="white" fill-opacity="0.5"/>
</svg>
