<svg width="136" height="128" viewBox="0 0 136 128" fill="none" xmlns="http://www.w3.org/2000/svg">
<g id="Frame">
<g id="Vector" filter="url(#filter0_d_938_8570)">
<path d="M67.9983 69C69.3244 69 70.5962 68.4732 71.5339 67.5355C72.4716 66.5979 72.9983 65.3261 72.9983 64C72.9983 62.6739 72.4716 61.4021 71.5339 60.4645C70.5962 59.5268 69.3244 59 67.9983 59C66.6723 59 65.4005 59.5268 64.4628 60.4645C63.5251 61.4021 62.9983 62.6739 62.9983 64C62.9983 65.3261 63.5251 66.5979 64.4628 67.5355C65.4005 68.4732 66.6723 69 67.9983 69Z" fill="url(#paint0_linear_938_8570)"/>
<path fill-rule="evenodd" clip-rule="evenodd" d="M50.2033 63.0783C52.6833 55.6267 59.7117 50.25 68 50.25C76.2833 50.25 83.3083 55.6217 85.7917 63.0667C85.9917 63.67 85.9917 64.32 85.7917 64.9217C83.3133 72.3733 76.2833 77.75 67.9967 77.75C59.7133 77.75 52.6867 72.3783 50.205 64.9333C50.0046 64.3312 50.0046 63.6804 50.205 63.0783H50.2033ZM76.7483 64C76.7483 66.3206 75.8265 68.5462 74.1855 70.1872C72.5446 71.8281 70.319 72.75 67.9983 72.75C65.6777 72.75 63.4521 71.8281 61.8112 70.1872C60.1702 68.5462 59.2483 66.3206 59.2483 64C59.2483 61.6794 60.1702 59.4538 61.8112 57.8128C63.4521 56.1719 65.6777 55.25 67.9983 55.25C70.319 55.25 72.5446 56.1719 74.1855 57.8128C75.8265 59.4538 76.7483 61.6794 76.7483 64Z" fill="url(#paint1_linear_938_8570)"/>
</g>
</g>
<defs>
<filter id="filter0_d_938_8570" x="0.0546875" y="0.25" width="135.891" height="127.5" filterUnits="userSpaceOnUse" color-interpolation-filters="sRGB">
<feFlood flood-opacity="0" result="BackgroundImageFix"/>
<feColorMatrix in="SourceAlpha" type="matrix" values="0 0 0 0 0 0 0 0 0 0 0 0 0 0 0 0 0 0 127 0" result="hardAlpha"/>
<feOffset/>
<feGaussianBlur stdDeviation="25"/>
<feComposite in2="hardAlpha" operator="out"/>
<feColorMatrix type="matrix" values="0 0 0 0 0.992157 0 0 0 0 0.533333 0 0 0 0 0.0235294 0 0 0 0.5 0"/>
<feBlend mode="normal" in2="BackgroundImageFix" result="effect1_dropShadow_938_8570"/>
<feBlend mode="normal" in="SourceGraphic" in2="effect1_dropShadow_938_8570" result="shape"/>
</filter>
<linearGradient id="paint0_linear_938_8570" x1="50.0547" y1="50.25" x2="76.6084" y2="84.9021" gradientUnits="userSpaceOnUse">
<stop stop-color="#E26009"/>
<stop offset="1" stop-color="#FF8831"/>
</linearGradient>
<linearGradient id="paint1_linear_938_8570" x1="50.0547" y1="50.25" x2="76.6084" y2="84.9021" gradientUnits="userSpaceOnUse">
<stop stop-color="#E26009"/>
<stop offset="1" stop-color="#FF8831"/>
</linearGradient>
</defs>
</svg>
