<svg width="110" height="110" viewBox="0 0 110 110" fill="none" xmlns="http://www.w3.org/2000/svg">
<g filter="url(#filter0_d_113_3383)">
<path d="M90 55C90 35.75 74.25 20 55 20C35.75 20 20 35.75 20 55C20 72.5 32.6875 86.9375 49.3125 89.5625V65.0625H40.5625V55H49.3125V47.125C49.3125 38.375 54.5625 33.5625 62.4375 33.5625C66.375 33.5625 70.3125 34.4375 70.3125 34.4375V43.1875H65.9375C61.5625 43.1875 60.25 45.8125 60.25 48.4375V55H69.875L68.125 65.0625H59.8125V90C77.3125 87.375 90 72.5 90 55Z" fill="url(#paint0_linear_113_3383)"/>
</g>
<defs>
<filter id="filter0_d_113_3383" x="0" y="0" width="110" height="110" filterUnits="userSpaceOnUse" color-interpolation-filters="sRGB">
<feFlood flood-opacity="0" result="BackgroundImageFix"/>
<feColorMatrix in="SourceAlpha" type="matrix" values="0 0 0 0 0 0 0 0 0 0 0 0 0 0 0 0 0 0 127 0" result="hardAlpha"/>
<feOffset/>
<feGaussianBlur stdDeviation="10"/>
<feComposite in2="hardAlpha" operator="out"/>
<feColorMatrix type="matrix" values="0 0 0 0 0.992157 0 0 0 0 0.533333 0 0 0 0 0.0235294 0 0 0 0.5 0"/>
<feBlend mode="normal" in2="BackgroundImageFix" result="effect1_dropShadow_113_3383"/>
<feBlend mode="normal" in="SourceGraphic" in2="effect1_dropShadow_113_3383" result="shape"/>
</filter>
<linearGradient id="paint0_linear_113_3383" x1="20" y1="20" x2="90" y2="90" gradientUnits="userSpaceOnUse">
<stop stop-color="#E26009"/>
<stop offset="1" stop-color="#FF8831"/>
</linearGradient>
</defs>
</svg>
