<svg width="110" height="110" viewBox="0 0 110 110" fill="none" xmlns="http://www.w3.org/2000/svg">
<g filter="url(#filter0_d_113_3388)">
<path d="M55 26.3253C64.2771 26.3253 65.5422 26.3253 69.3374 26.3253C72.7108 26.3253 74.3976 27.1687 75.6627 27.5904C77.3494 28.4337 78.6145 28.8554 79.8795 30.1205C81.1446 31.3855 81.988 32.6506 82.4096 34.3374C82.8313 35.6024 83.253 37.2892 83.6747 40.6627C83.6747 44.4578 83.6747 45.3012 83.6747 55C83.6747 64.6988 83.6747 65.5422 83.6747 69.3374C83.6747 72.7108 82.8313 74.3976 82.4096 75.6627C81.5663 77.3494 81.1446 78.6145 79.8795 79.8795C78.6145 81.1446 77.3494 81.988 75.6627 82.4096C74.3976 82.8313 72.7108 83.253 69.3374 83.6747C65.5422 83.6747 64.6988 83.6747 55 83.6747C45.3012 83.6747 44.4578 83.6747 40.6627 83.6747C37.2892 83.6747 35.6024 82.8313 34.3374 82.4096C32.6506 81.5663 31.3855 81.1446 30.1205 79.8795C28.8554 78.6145 28.012 77.3494 27.5904 75.6627C27.1687 74.3976 26.747 72.7108 26.3253 69.3374C26.3253 65.5422 26.3253 64.6988 26.3253 55C26.3253 45.3012 26.3253 44.4578 26.3253 40.6627C26.3253 37.2892 27.1687 35.6024 27.5904 34.3374C28.4337 32.6506 28.8554 31.3855 30.1205 30.1205C31.3855 28.8554 32.6506 28.012 34.3374 27.5904C35.6024 27.1687 37.2892 26.747 40.6627 26.3253C44.4578 26.3253 45.7229 26.3253 55 26.3253ZM55 20C45.3012 20 44.4578 20 40.6627 20C36.8675 20 34.3374 20.8434 32.2289 21.6867C30.1205 22.5301 28.0121 23.7952 25.9036 25.9036C23.7952 28.0121 22.9518 29.6988 21.6867 32.2289C20.8434 34.3374 20.4217 36.8675 20 40.6627C20 44.4578 20 45.7229 20 55C20 64.6988 20 65.5422 20 69.3374C20 73.1325 20.8434 75.6627 21.6867 77.7711C22.5301 79.8795 23.7952 81.988 25.9036 84.0964C28.0121 86.2048 29.6988 87.0482 32.2289 88.3133C34.3374 89.1566 36.8675 89.5783 40.6627 90C44.4578 90 45.7229 90 55 90C64.2771 90 65.5422 90 69.3374 90C73.1325 90 75.6627 89.1566 77.7711 88.3133C79.8795 87.4699 81.988 86.2048 84.0964 84.0964C86.2048 81.988 87.0482 80.3012 88.3133 77.7711C89.1566 75.6627 89.5783 73.1325 90 69.3374C90 65.5422 90 64.2771 90 55C90 45.7229 90 44.4578 90 40.6627C90 36.8675 89.1566 34.3374 88.3133 32.2289C87.4699 30.1205 86.2048 28.0121 84.0964 25.9036C81.988 23.7952 80.3012 22.9518 77.7711 21.6867C75.6627 20.8434 73.1325 20.4217 69.3374 20C65.5422 20 64.6988 20 55 20Z" fill="url(#paint0_linear_113_3388)"/>
<path d="M55 36.8675C44.8795 36.8675 36.8675 44.8795 36.8675 55C36.8675 65.1205 44.8795 73.1325 55 73.1325C65.1205 73.1325 73.1325 65.1205 73.1325 55C73.1325 44.8795 65.1205 36.8675 55 36.8675ZM55 66.8072C48.6747 66.8072 43.1928 61.747 43.1928 55C43.1928 48.6747 48.253 43.1928 55 43.1928C61.3253 43.1928 66.8072 48.253 66.8072 55C66.8072 61.3253 61.3253 66.8072 55 66.8072Z" fill="url(#paint1_linear_113_3388)"/>
<path d="M73.5542 40.6627C75.8831 40.6627 77.7711 38.7747 77.7711 36.4458C77.7711 34.1169 75.8831 32.2289 73.5542 32.2289C71.2253 32.2289 69.3374 34.1169 69.3374 36.4458C69.3374 38.7747 71.2253 40.6627 73.5542 40.6627Z" fill="url(#paint2_linear_113_3388)"/>
</g>
<defs>
<filter id="filter0_d_113_3388" x="0" y="0" width="110" height="110" filterUnits="userSpaceOnUse" color-interpolation-filters="sRGB">
<feFlood flood-opacity="0" result="BackgroundImageFix"/>
<feColorMatrix in="SourceAlpha" type="matrix" values="0 0 0 0 0 0 0 0 0 0 0 0 0 0 0 0 0 0 127 0" result="hardAlpha"/>
<feOffset/>
<feGaussianBlur stdDeviation="10"/>
<feComposite in2="hardAlpha" operator="out"/>
<feColorMatrix type="matrix" values="0 0 0 0 0.992157 0 0 0 0 0.533333 0 0 0 0 0.0235294 0 0 0 0.5 0"/>
<feBlend mode="normal" in2="BackgroundImageFix" result="effect1_dropShadow_113_3388"/>
<feBlend mode="normal" in="SourceGraphic" in2="effect1_dropShadow_113_3388" result="shape"/>
</filter>
<linearGradient id="paint0_linear_113_3388" x1="20" y1="20" x2="90" y2="90" gradientUnits="userSpaceOnUse">
<stop stop-color="#E26009"/>
<stop offset="1" stop-color="#FF8831"/>
</linearGradient>
<linearGradient id="paint1_linear_113_3388" x1="20" y1="20" x2="90" y2="90" gradientUnits="userSpaceOnUse">
<stop stop-color="#E26009"/>
<stop offset="1" stop-color="#FF8831"/>
</linearGradient>
<linearGradient id="paint2_linear_113_3388" x1="20" y1="20" x2="90" y2="90" gradientUnits="userSpaceOnUse">
<stop stop-color="#E26009"/>
<stop offset="1" stop-color="#FF8831"/>
</linearGradient>
</defs>
</svg>
