<svg width="110" height="110" viewBox="0 0 110 110" fill="none" xmlns="http://www.w3.org/2000/svg">
<g filter="url(#filter0_d_113_3396)">
<path d="M35.75 90H20.875V43.1875H35.75V90ZM28.3125 36.625C23.5 36.625 20 33.125 20 28.3125C20 23.5 23.9375 20 28.3125 20C33.125 20 36.625 23.5 36.625 28.3125C36.625 33.125 33.125 36.625 28.3125 36.625ZM90 90H75.125V64.625C75.125 57.1875 72.0625 55 67.6875 55C63.3125 55 58.9375 58.5 58.9375 65.0625V90H44.0625V43.1875H58.0625V49.75C59.375 46.6875 64.625 41.875 72.0625 41.875C80.375 41.875 89.125 46.6875 89.125 61.125V90H90Z" fill="url(#paint0_linear_113_3396)"/>
</g>
<defs>
<filter id="filter0_d_113_3396" x="0" y="0" width="110" height="110" filterUnits="userSpaceOnUse" color-interpolation-filters="sRGB">
<feFlood flood-opacity="0" result="BackgroundImageFix"/>
<feColorMatrix in="SourceAlpha" type="matrix" values="0 0 0 0 0 0 0 0 0 0 0 0 0 0 0 0 0 0 127 0" result="hardAlpha"/>
<feOffset/>
<feGaussianBlur stdDeviation="10"/>
<feComposite in2="hardAlpha" operator="out"/>
<feColorMatrix type="matrix" values="0 0 0 0 0.992157 0 0 0 0 0.533333 0 0 0 0 0.0235294 0 0 0 0.5 0"/>
<feBlend mode="normal" in2="BackgroundImageFix" result="effect1_dropShadow_113_3396"/>
<feBlend mode="normal" in="SourceGraphic" in2="effect1_dropShadow_113_3396" result="shape"/>
</filter>
<linearGradient id="paint0_linear_113_3396" x1="20" y1="20" x2="90" y2="90" gradientUnits="userSpaceOnUse">
<stop stop-color="#E26009"/>
<stop offset="1" stop-color="#FF8831"/>
</linearGradient>
</defs>
</svg>
