<svg width="233" height="232" viewBox="0 0 233 232" fill="none" xmlns="http://www.w3.org/2000/svg">
<g clip-path="url(#clip0_938_11059)" filter="url(#filter0_f_938_11059)">
<path d="M80.358 101.835C88.2118 82.0733 110.593 72.4196 130.358 80.2749C150.116 88.1272 159.771 110.514 151.918 130.275C144.064 150.036 121.675 159.687 101.918 151.835C82.1528 143.979 72.5041 121.596 80.358 101.835Z" fill="#FC3F1D"/>
<path d="M126.881 102.373L123.575 101.059C117.513 98.6497 113.105 100.453 111.306 104.979C109.273 110.095 110.524 113.368 113.829 118.241L116.567 122.246L99.4415 134.03L91.4125 130.839L106.763 120.309C102.797 114.13 101.219 109.032 103.814 102.502C107.067 94.3158 114.996 90.9951 125.819 95.2967L136.564 99.567L119.687 142.031L112.288 139.09L126.881 102.373Z" fill="white"/>
</g>
<g clip-path="url(#clip1_938_11059)">
<path d="M80.358 101.835C88.2118 82.0733 110.593 72.4196 130.358 80.2749C150.116 88.1272 159.771 110.514 151.918 130.275C144.064 150.036 121.675 159.687 101.918 151.835C82.1528 143.979 72.5041 121.596 80.358 101.835Z" fill="#FC3F1D"/>
<path d="M126.881 102.373L123.575 101.059C117.513 98.6497 113.105 100.453 111.306 104.979C109.273 110.095 110.524 113.368 113.829 118.241L116.567 122.246L99.4415 134.03L91.4125 130.839L106.763 120.309C102.797 114.13 101.219 109.032 103.814 102.502C107.067 94.3158 114.996 90.9951 125.819 95.2967L136.564 99.567L119.687 142.031L112.288 139.09L126.881 102.373Z" fill="white"/>
</g>
<defs>
<filter id="filter0_f_938_11059" x="-21.4" y="-21.4" width="274.8" height="274.8" filterUnits="userSpaceOnUse" color-interpolation-filters="sRGB">
<feFlood flood-opacity="0" result="BackgroundImageFix"/>
<feBlend mode="normal" in="SourceGraphic" in2="BackgroundImageFix" result="shape"/>
<feGaussianBlur stdDeviation="38.7" result="effect1_foregroundBlur_938_11059"/>
</filter>
<clipPath id="clip0_938_11059">
<rect width="92.405" height="92.405" fill="white" transform="translate(90.125 56) rotate(21.6746)"/>
</clipPath>
<clipPath id="clip1_938_11059">
<rect width="92.405" height="92.405" fill="white" transform="translate(90.125 56) rotate(21.6746)"/>
</clipPath>
</defs>
</svg>
