<svg width="120" height="120" viewBox="0 0 120 120" fill="none" xmlns="http://www.w3.org/2000/svg">
<g clip-path="url(#clip0_938_11063)">
<path d="M24.358 45.8345C32.2118 26.0733 54.5932 16.4196 74.3579 24.2749C94.1156 32.1272 103.771 54.5137 95.9176 74.2749C88.0638 94.0361 65.6752 103.687 45.9176 95.8345C26.1528 87.9793 16.5041 65.5957 24.358 45.8345Z" fill="#FC3F1D"/>
<path d="M70.8806 46.3725L67.5745 45.0586C61.5134 42.6497 57.1053 44.4526 55.3065 48.9787C53.273 54.0953 54.5243 57.3685 57.8289 62.2408L60.5668 66.2457L43.4415 78.0298L35.4125 74.8388L50.7632 64.3091C46.7972 58.1298 45.2187 53.032 47.8139 46.5022C51.0674 38.3158 58.9955 34.9951 69.8189 39.2967L80.5636 43.567L63.6871 86.0305L56.2878 83.0898L70.8806 46.3725Z" fill="white"/>
</g>
<defs>
<clipPath id="clip0_938_11063">
<rect width="92.405" height="92.405" fill="white" transform="translate(34.125) rotate(21.6746)"/>
</clipPath>
</defs>
</svg>
